<svg width="17" height="17" viewBox="0 0 17 17" fill="none" xmlns="http://www.w3.org/2000/svg">
<path id="Icon" d="M12.6166 1.56689C13.3402 0.81953 14.5357 0.809863 15.2713 1.54542C15.9867 2.26083 16 3.41656 15.3013 4.14826L13.2173 6.33058C13.0539 6.50164 12.9723 6.58716 12.9219 6.68733C12.8774 6.77601 12.8509 6.87265 12.8439 6.97164C12.8361 7.08347 12.8627 7.1987 12.9159 7.42917L14.2118 13.0448C14.2664 13.2814 14.2937 13.3997 14.2849 13.5141C14.2771 13.6154 14.2488 13.714 14.2017 13.804C14.1486 13.9057 14.0627 13.9915 13.8911 14.1632L13.613 14.4413C13.1584 14.8959 12.9311 15.1232 12.6984 15.1643C12.4953 15.2003 12.2863 15.1509 12.1207 15.0279C11.931 14.8871 11.8293 14.5821 11.626 13.9722L10.1187 9.45025L7.60972 11.9592C7.45996 12.109 7.38507 12.1839 7.33498 12.2721C7.29061 12.3502 7.26063 12.4357 7.24648 12.5244C7.2305 12.6245 7.2422 12.7298 7.26559 12.9403L7.40337 14.1803C7.42676 14.3908 7.43845 14.4961 7.42248 14.5962C7.40833 14.685 7.37835 14.7704 7.33398 14.8485C7.28389 14.9367 7.209 15.0116 7.05924 15.1614L6.91111 15.3095C6.55632 15.6643 6.37892 15.8417 6.18178 15.8931C6.00887 15.9381 5.82555 15.92 5.66484 15.8419C5.48161 15.7528 5.34245 15.5441 5.06412 15.1266L3.88788 13.3623C3.83815 13.2877 3.81329 13.2504 3.78443 13.2165C3.75879 13.1865 3.73081 13.1585 3.70077 13.1329C3.66694 13.104 3.62965 13.0792 3.55506 13.0294L1.7907 11.8532C1.37321 11.5749 1.16447 11.4357 1.07543 11.2525C0.997332 11.0918 0.97918 10.9084 1.02424 10.7355C1.07562 10.5384 1.25302 10.361 1.60781 10.0062L1.75594 9.85808C1.9057 9.70831 1.98059 9.63343 2.06877 9.58334C2.14689 9.53896 2.23235 9.50898 2.32108 9.49483C2.42123 9.47886 2.52648 9.49055 2.73698 9.51394L3.97703 9.65173C4.18753 9.67512 4.29278 9.68681 4.39293 9.67084C4.48166 9.65668 4.56712 9.62671 4.64524 9.58233C4.73342 9.53224 4.80831 9.45736 4.95807 9.30759L7.46706 6.7986L2.9451 5.29128C2.33518 5.08797 2.03022 4.98632 1.88938 4.79664C1.76639 4.63101 1.71706 4.42203 1.75299 4.21889C1.79414 3.98625 2.02144 3.75894 2.47605 3.30433L2.75413 3.02626C2.9258 2.85459 3.01163 2.76875 3.11333 2.71558C3.20333 2.66852 3.30196 2.64024 3.40323 2.63244C3.51765 2.62363 3.63593 2.65092 3.87249 2.70551L9.46684 3.99652C9.6993 4.05016 9.81553 4.07699 9.92776 4.06901C10.0361 4.0613 10.1415 4.03015 10.2366 3.97772C10.3351 3.92341 10.4181 3.83771 10.5841 3.6663L12.6166 1.56689Z" stroke="white" stroke-linecap="round" stroke-linejoin="round"/>
</svg>
