<svg width="18" height="18" viewBox="0 0 18 18" fill="none" xmlns="http://www.w3.org/2000/svg">
<path id="Icon" d="M5.8 17V4.55556C5.8 3.72891 5.8 3.31559 5.88178 2.97648C6.1037 2.05624 6.75061 1.33744 7.57883 1.09086C7.88403 1 8.25602 1 9 1C9.74398 1 10.116 1 10.4212 1.09086C11.2494 1.33744 11.8963 2.05624 12.1182 2.97648C12.2 3.31559 12.2 3.72891 12.2 4.55556V10.3333M12.2 13.8889V17M4.84 17H13.16C14.5041 17 15.1762 17 15.6896 16.7094C16.1412 16.4537 16.5083 16.0457 16.7384 15.544C17 14.9735 17 14.2268 17 12.7333V8.82222C17 7.32875 17 6.58201 16.7384 6.01158C16.5083 5.50982 16.1412 5.10187 15.6896 4.8462C15.1762 4.55556 14.5041 4.55556 13.16 4.55556H4.84C3.49587 4.55556 2.82381 4.55556 2.31042 4.8462C1.85883 5.10187 1.49168 5.50982 1.26158 6.01158C1 6.58201 1 7.32875 1 8.82222V12.7333C1 14.2268 1 14.9735 1.26158 15.544C1.49168 16.0457 1.85883 16.4537 2.31042 16.7094C2.82381 17 3.49587 17 4.84 17ZM9.64 13.8889H13.56C13.784 13.8889 13.896 13.8889 13.9816 13.8404C14.0569 13.7978 14.1181 13.7298 14.1564 13.6462C14.2 13.5511 14.2 13.4267 14.2 13.1778V11.0444C14.2 10.7955 14.2 10.6711 14.1564 10.576C14.1181 10.4924 14.0569 10.4244 13.9816 10.3818C13.896 10.3333 13.784 10.3333 13.56 10.3333H9.64C9.41598 10.3333 9.30397 10.3333 9.2184 10.3818C9.14314 10.4244 9.08195 10.4924 9.0436 10.576C9 10.6711 9 10.7955 9 11.0444V13.1778C9 13.4267 9 13.5511 9.0436 13.6462C9.08195 13.7298 9.14314 13.7978 9.2184 13.8404C9.30397 13.8889 9.41598 13.8889 9.64 13.8889Z" stroke="white" stroke-linecap="round" stroke-linejoin="round"/>
</svg>
