<svg width="19" height="19" viewBox="0 0 19 19" fill="none" xmlns="http://www.w3.org/2000/svg">
<path id="Icon" d="M1.9162 8.38429C1.38995 8.17964 1.12683 8.07731 1.05001 7.92987C0.983415 7.80205 0.983326 7.64979 1.04977 7.5219C1.12642 7.37437 1.38942 7.27173 1.91543 7.06646L16.8432 1.241C17.318 1.0557 17.5554 0.963053 17.7071 1.01373C17.8389 1.05775 17.9423 1.16114 17.9863 1.29289C18.0369 1.4446 17.9443 1.68202 17.759 2.15685L11.9335 17.0846C11.7283 17.6106 11.6256 17.8736 11.4781 17.9502C11.3502 18.0167 11.1979 18.0166 11.0701 17.95C10.9227 17.8732 10.8204 17.61 10.6157 17.0838L8.29262 11.1101C8.25108 11.0033 8.23031 10.9499 8.19823 10.9049C8.16979 10.8651 8.13493 10.8302 8.09507 10.8018C8.05009 10.7697 7.99668 10.7489 7.88986 10.7074L1.9162 8.38429Z" stroke="white" stroke-linecap="round" stroke-linejoin="round"/>
</svg>
