<svg width="17" height="17" viewBox="0 0 17 17" fill="none" xmlns="http://www.w3.org/2000/svg">
<g id="Icon">
<path d="M8.5 16C12.6421 16 16 12.6421 16 8.5C16 4.35786 12.6421 1 8.5 1C4.35786 1 1 4.35786 1 8.5C1 12.6421 4.35786 16 8.5 16Z" stroke="white" stroke-linecap="round" stroke-linejoin="round"/>
<path d="M9.875 4.975C9.875 4.76498 9.875 4.65997 9.83413 4.57975C9.79818 4.50919 9.74081 4.45183 9.67025 4.41587C9.59003 4.375 9.48502 4.375 9.275 4.375H7.725C7.51498 4.375 7.40997 4.375 7.32975 4.41587C7.25919 4.45183 7.20183 4.50919 7.16587 4.57975C7.125 4.65997 7.125 4.76498 7.125 4.975V6.525C7.125 6.73502 7.125 6.84003 7.08413 6.92025C7.04818 6.99081 6.99081 7.04818 6.92025 7.08413C6.84003 7.125 6.73502 7.125 6.525 7.125H4.975C4.76498 7.125 4.65997 7.125 4.57975 7.16587C4.50919 7.20182 4.45183 7.25919 4.41587 7.32975C4.375 7.40997 4.375 7.51498 4.375 7.725V9.275C4.375 9.48502 4.375 9.59003 4.41587 9.67025C4.45183 9.74081 4.50919 9.79818 4.57975 9.83413C4.65997 9.875 4.76498 9.875 4.975 9.875H6.525C6.73502 9.875 6.84003 9.875 6.92025 9.91587C6.99081 9.95182 7.04818 10.0092 7.08413 10.0798C7.125 10.16 7.125 10.265 7.125 10.475V12.025C7.125 12.235 7.125 12.34 7.16587 12.4202C7.20183 12.4908 7.25919 12.5482 7.32975 12.5841C7.40997 12.625 7.51498 12.625 7.725 12.625H9.275C9.48502 12.625 9.59003 12.625 9.67025 12.5841C9.74081 12.5482 9.79818 12.4908 9.83413 12.4202C9.875 12.34 9.875 12.235 9.875 12.025V10.475C9.875 10.265 9.875 10.16 9.91587 10.0798C9.95182 10.0092 10.0092 9.95182 10.0798 9.91587C10.16 9.875 10.265 9.875 10.475 9.875H12.025C12.235 9.875 12.34 9.875 12.4202 9.83413C12.4908 9.79818 12.5482 9.74081 12.5841 9.67025C12.625 9.59003 12.625 9.48502 12.625 9.275V7.725C12.625 7.51498 12.625 7.40997 12.5841 7.32975C12.5482 7.25919 12.4908 7.20183 12.4202 7.16587C12.34 7.125 12.235 7.125 12.025 7.125H10.475C10.265 7.125 10.16 7.125 10.0798 7.08413C10.0092 7.04818 9.95182 6.99081 9.91587 6.92025C9.875 6.84003 9.875 6.73502 9.875 6.525V4.975Z" stroke="white" stroke-linecap="round" stroke-linejoin="round"/>
</g>
</svg>
