<svg width="18" height="18" viewBox="0 0 18 18" fill="none" xmlns="http://www.w3.org/2000/svg">
<path id="Icon" d="M8.6 3.4H8.94752C11.3853 3.4 12.6042 3.4 13.0669 3.83783C13.4669 4.21629 13.6441 4.77382 13.5361 5.31377C13.4112 5.93841 12.4161 6.64228 10.4258 8.05002L7.17418 10.35C5.18392 11.7577 4.18879 12.4616 4.06387 13.0862C3.95589 13.6262 4.13313 14.1837 4.53309 14.5622C4.99579 15 6.21469 15 8.65248 15H9.4M5.8 3.4C5.8 4.72548 4.72548 5.8 3.4 5.8C2.07452 5.8 1 4.72548 1 3.4C1 2.07452 2.07452 1 3.4 1C4.72548 1 5.8 2.07452 5.8 3.4ZM17 14.6C17 15.9255 15.9255 17 14.6 17C13.2745 17 12.2 15.9255 12.2 14.6C12.2 13.2745 13.2745 12.2 14.6 12.2C15.9255 12.2 17 13.2745 17 14.6Z" stroke="white" stroke-linecap="round" stroke-linejoin="round"/>
</svg>
