<svg width="22" height="20" viewBox="0 0 22 20" fill="none" xmlns="http://www.w3.org/2000/svg">
<path id="Icon" d="M18.7141 4.9999L17.2856 14.9999M5.14286 5L3.35714 15M17 3L7 3M15 17L5 17M4.6 5H5.4C5.96005 5 6.24008 5 6.45399 4.89101C6.64215 4.79513 6.79513 4.64215 6.89101 4.45399C7 4.24008 7 3.96005 7 3.4V2.6C7 2.03995 7 1.75992 6.89101 1.54601C6.79513 1.35785 6.64215 1.20487 6.45399 1.10899C6.24008 1 5.96005 1 5.4 1H4.6C4.03995 1 3.75992 1 3.54601 1.10899C3.35785 1.20487 3.20487 1.35785 3.10899 1.54601C3 1.75992 3 2.03995 3 2.6V3.4C3 3.96005 3 4.24008 3.10899 4.45399C3.20487 4.64215 3.35785 4.79513 3.54601 4.89101C3.75992 5 4.03995 5 4.6 5ZM2.6 19H3.4C3.96005 19 4.24008 19 4.45399 18.891C4.64215 18.7951 4.79513 18.6422 4.89101 18.454C5 18.2401 5 17.9601 5 17.4V16.6C5 16.0399 5 15.7599 4.89101 15.546C4.79513 15.3578 4.64215 15.2049 4.45399 15.109C4.24008 15 3.96005 15 3.4 15H2.6C2.03995 15 1.75992 15 1.54601 15.109C1.35785 15.2049 1.20487 15.3578 1.10899 15.546C1 15.7599 1 16.0399 1 16.6V17.4C1 17.9601 1 18.2401 1.10899 18.454C1.20487 18.6422 1.35785 18.7951 1.54601 18.891C1.75992 19 2.03995 19 2.6 19ZM18.6 5H19.4C19.9601 5 20.2401 5 20.454 4.89101C20.6422 4.79513 20.7951 4.64215 20.891 4.45399C21 4.24008 21 3.96005 21 3.4V2.6C21 2.03995 21 1.75992 20.891 1.54601C20.7951 1.35785 20.6422 1.20487 20.454 1.10899C20.2401 1 19.9601 1 19.4 1H18.6C18.0399 1 17.7599 1 17.546 1.10899C17.3578 1.20487 17.2049 1.35785 17.109 1.54601C17 1.75992 17 2.03995 17 2.6V3.4C17 3.96005 17 4.24008 17.109 4.45399C17.2049 4.64215 17.3578 4.79513 17.546 4.89101C17.7599 5 18.0399 5 18.6 5ZM16.6 19H17.4C17.9601 19 18.2401 19 18.454 18.891C18.6422 18.7951 18.7951 18.6422 18.891 18.454C19 18.2401 19 17.9601 19 17.4V16.6C19 16.0399 19 15.7599 18.891 15.546C18.7951 15.3578 18.6422 15.2049 18.454 15.109C18.2401 15 17.9601 15 17.4 15H16.6C16.0399 15 15.7599 15 15.546 15.109C15.3578 15.2049 15.2049 15.3578 15.109 15.546C15 15.7599 15 16.0399 15 16.6V17.4C15 17.9601 15 18.2401 15.109 18.454C15.2049 18.6422 15.3578 18.7951 15.546 18.891C15.7599 19 16.0399 19 16.6 19Z" stroke="white" stroke-linecap="round" stroke-linejoin="round"/>
</svg>
