<svg width="18" height="19" viewBox="0 0 18 19" fill="none" xmlns="http://www.w3.org/2000/svg">
<path id="Icon" d="M4.2 16.3681H6.28823C6.5605 16.3681 6.83111 16.4026 7.09505 16.4717L9.30152 17.0435C9.78028 17.1679 10.279 17.18 10.7628 17.0798L13.2024 16.5737C13.8468 16.4398 14.4397 16.1107 14.9043 15.6287L16.6303 13.8382C17.1232 13.3277 17.1232 12.4994 16.6303 11.9881C16.1865 11.5277 15.4838 11.4759 14.9817 11.8663L12.9701 13.4314C12.682 13.6559 12.3315 13.7769 11.9709 13.7769H10.0284L11.2649 13.7768C11.9618 13.7768 12.5263 13.1912 12.5263 12.4682V12.2065C12.5263 11.6062 12.1325 11.0828 11.5713 10.9377L9.66288 10.4428C9.35231 10.3624 9.03424 10.3218 8.71451 10.3218C7.94267 10.3218 6.54552 11.0033 6.54552 11.0033L4.2 12.0493M1 11.6868L1 16.635C1 17.1128 1 17.3517 1.08719 17.5342C1.16389 17.6947 1.28628 17.8252 1.43681 17.907C1.60794 18 1.83196 18 2.28 18H2.92C3.36804 18 3.59206 18 3.76319 17.907C3.91372 17.8252 4.03611 17.6947 4.11281 17.5342C4.2 17.3517 4.2 17.1128 4.2 16.635V11.6868C4.2 11.2091 4.2 10.9702 4.11281 10.7877C4.03611 10.6271 3.91372 10.4966 3.76319 10.4148C3.59206 10.3218 3.36804 10.3218 2.92 10.3218H2.28C1.83196 10.3218 1.60794 10.3218 1.43681 10.4148C1.28628 10.4966 1.16389 10.6271 1.08719 10.7877C1 10.9702 1 11.2091 1 11.6868ZM13.1531 2.29582C12.6756 1.23039 11.5749 0.665947 10.5043 1.21074C9.43383 1.75554 8.97776 3.04754 9.42596 4.18173C9.70297 4.88268 10.4966 6.24389 11.0625 7.1815C11.2716 7.52794 11.3761 7.70116 11.5288 7.80249C11.6598 7.88941 11.8237 7.93626 11.9779 7.93082C12.1577 7.92449 12.3294 7.83022 12.6729 7.64168C13.6026 7.13141 14.9281 6.37574 15.4967 5.91639C16.4166 5.17314 16.6445 3.80699 15.9557 2.76844C15.267 1.7299 14.0661 1.62771 13.1531 2.29582Z" stroke="white" stroke-linecap="round" stroke-linejoin="round"/>
</svg>
