<svg width="21" height="21" viewBox="0 0 21 21" fill="none" xmlns="http://www.w3.org/2000/svg">
<g id="tool-01" clip-path="url(#clip0_1_39822)">
<path id="Icon" d="M11.1586 6.67745C10.8121 6.33093 10.6388 6.15768 10.5739 5.95789C10.5168 5.78215 10.5168 5.59285 10.5739 5.41711C10.6388 5.21732 10.8121 5.04407 11.1586 4.69755L13.6422 2.21398C12.9831 1.91592 12.2515 1.75 11.4812 1.75C8.58166 1.75 6.23116 4.10051 6.23116 7C6.23116 7.42966 6.28277 7.84726 6.38013 8.24695C6.4844 8.67496 6.53653 8.88897 6.52728 9.02416C6.51759 9.1657 6.49648 9.24101 6.43121 9.36698C6.36886 9.48729 6.24941 9.60675 6.0105 9.84566L0.543655 15.3125C-0.181219 16.0374 -0.181218 17.2126 0.543655 17.9375C1.26853 18.6624 2.44378 18.6624 3.16866 17.9375L8.6355 12.4707C8.87441 12.2317 8.99386 12.1123 9.11418 12.0499C9.24014 11.9847 9.31545 11.9636 9.45699 11.9539C9.59219 11.9446 9.8062 11.9968 10.2342 12.101C10.6339 12.1984 11.0515 12.25 11.4812 12.25C14.3807 12.25 16.7312 9.89949 16.7312 7C16.7312 6.22964 16.5652 5.49804 16.2672 4.83898L13.7836 7.32255C13.4371 7.66907 13.2638 7.84232 13.064 7.90724C12.8883 7.96434 12.699 7.96434 12.5233 7.90724C12.3235 7.84232 12.1502 7.66906 11.8037 7.32255L11.1586 6.67745Z" stroke="white" stroke-linecap="round" stroke-linejoin="round"/>
</g>
<defs>
<clipPath id="clip0_1_39822">
<rect width="21" height="21" fill="white"/>
</clipPath>
</defs>
</svg>
