<svg width="94" height="94" viewBox="0 0 94 94" fill="none" xmlns="http://www.w3.org/2000/svg">
<path d="M46.1466 87.6675C68.7252 87.6675 87.0288 69.364 87.0288 46.7854C87.0288 24.2068 68.7252 5.90326 46.1466 5.90326C23.5681 5.90326 5.26465 24.2068 5.26465 46.7854C5.26465 69.364 23.5681 87.6675 46.1466 87.6675Z" fill="#3C7DDF"/>
<path opacity="0.51" d="M1.31881 46.7752H0V46.4821C0 37.2506 2.78412 28.1657 7.9127 20.5461C12.8948 13.073 20.0748 7.21177 28.427 3.69503C42.9336 -2.45926 59.4915 -0.847389 72.5328 7.94446C80.0059 12.9265 85.8671 20.1065 89.3838 28.4588C91.8749 34.1735 93.0471 40.3278 93.0471 46.6287C93.0471 46.7752 93.0471 46.7751 93.0471 46.9216H91.7285C91.7285 46.7751 91.7285 46.7752 91.7285 46.6287C91.7285 43.5515 91.4353 40.4743 90.8492 37.5437C89.6769 31.829 87.3324 26.2608 84.1088 21.4253C79.2732 14.0988 72.2398 8.53059 64.1806 5.01385C61.3965 3.8416 58.6124 2.96243 55.6817 2.37631C49.674 1.20406 43.5198 1.20406 37.5121 2.37631C31.7973 3.54856 26.2292 5.89301 21.3937 9.11669C14.0671 13.9522 8.49883 20.8392 4.98209 29.0449C3.80984 31.829 2.93076 34.6131 2.34464 37.5437C1.75851 40.4743 1.46531 43.5515 1.46531 46.6287C1.31878 46.6287 1.31881 46.7752 1.31881 46.7752Z" fill="url(#paint0_linear_109_880)"/>
<path opacity="0.51" d="M1.31881 46.7751H0V47.0682C0 53.2225 1.17225 59.3768 3.66327 65.238C4.83552 68.0221 6.30086 70.6597 7.9127 73.1507C9.52454 75.6417 11.4295 77.9862 13.6274 80.0377C15.6789 82.0891 18.0233 83.994 20.5143 85.7523C23.0054 87.3642 25.6429 88.8295 28.427 90.0018C40.003 94.8373 53.0443 94.8373 64.6203 90.0018C67.4044 88.8295 70.0418 87.3642 72.5328 85.7523C75.0238 84.1405 77.3684 82.2356 79.4199 80.0377C81.4713 77.9862 83.3762 75.6417 85.1346 73.1507C86.7464 70.6597 88.2116 68.0221 89.3838 65.238C91.8749 59.5233 93.0471 53.3691 93.0471 47.0682C93.0471 46.9217 93.0471 46.9217 93.0471 46.7751H91.7285C91.7285 46.9217 91.7285 46.9217 91.7285 47.0682C91.7285 50.1454 91.4353 53.2225 90.8492 56.1532C90.263 59.0838 89.3839 61.8678 88.2117 64.6519C87.0395 67.2895 85.7206 69.9271 84.1088 72.2716C82.4969 74.6161 80.5921 76.9605 78.5407 79.0119C76.4893 81.0634 74.2912 82.9683 71.8001 84.5801C69.4556 86.1919 66.8182 87.6572 64.1806 88.6829C61.3965 89.8552 58.6124 90.7345 55.6817 91.3206C52.7511 91.9067 49.674 92.1997 46.5969 92.1997C43.5197 92.1997 40.4427 91.9067 37.5121 91.3206C34.5814 90.7345 31.7973 89.8552 29.0132 88.6829C26.3756 87.5107 23.7381 86.1919 21.3937 84.5801C19.0492 82.9683 16.7045 81.0634 14.6531 79.0119C12.6017 76.9605 10.6969 74.7626 9.08502 72.2716C7.47318 69.9271 6.0078 67.2895 4.98209 64.6519C3.80984 61.8678 2.93076 59.0838 2.34464 56.1532C1.75851 53.2225 1.46531 50.1454 1.46531 47.0682C1.31878 46.9217 1.31881 46.9217 1.31881 46.7751Z" fill="url(#paint1_linear_109_880)"/>
<path d="M91.5088 29.3672L88.1385 31.5652C86.2337 26.2901 83.3031 21.4546 79.6399 17.3518L83.01 15.1538C86.6732 19.2567 89.6039 24.0921 91.5088 29.3672ZM15.0196 78.6017L11.6495 80.7996C7.69316 76.8433 4.61598 72.1543 2.27148 67.0257L5.64177 64.8277C7.83973 69.9563 10.9167 74.6453 15.0196 78.6017Z" fill="#92CEFC"/>
<path d="M36.0001 44.7941C35.9879 43.5209 37.0162 42.4802 38.2895 42.468H43.7374V37.8648C43.7251 36.2977 44.9983 35.0122 46.5654 35H47.3244C48.8915 35.0122 50.1647 36.2977 50.1524 37.8648V42.468H55.7105C56.996 42.4802 58.0121 43.5331 57.9999 44.8186C57.9876 45.8225 57.3266 46.704 56.3716 47.01V55.1269C56.3839 56.1553 55.5514 56.9878 54.523 57H39.3301C38.3017 56.9878 37.4815 56.1553 37.4815 55.1269V46.961C36.5877 46.6183 36.0001 45.749 36.0001 44.7941ZM48.7323 37.8648C48.7323 37.0812 48.1079 36.4446 47.3244 36.4446H46.5654C45.7819 36.4569 45.1575 37.0935 45.1575 37.8648V42.468H48.7323V37.8648ZM39.3301 55.5554H41.6684V52.6049C41.6561 52.2131 41.9622 51.8826 42.354 51.8703C42.7457 51.8581 43.0763 52.1642 43.0885 52.5559V55.5554H46.2104V52.6049C46.2104 52.2131 46.5287 51.8948 46.9204 51.8948C47.3122 51.8948 47.6305 52.2131 47.6305 52.6049V55.5554H50.7523V52.6049C50.7523 52.2131 51.0706 51.8948 51.4624 51.8948C51.8542 51.8948 52.1725 52.2131 52.1725 52.6049V55.5554H54.523C54.7556 55.5554 54.9515 55.3595 54.9515 55.1269V47.1202H38.9016V55.1269C38.9016 55.3595 39.0975 55.5554 39.3301 55.5554ZM38.2895 45.6756H55.7105C56.2002 45.6756 56.592 45.2716 56.592 44.7819C56.592 44.2922 56.2002 43.9004 55.7105 43.9004H38.2895C37.7998 43.9004 37.408 44.3044 37.408 44.7941C37.408 45.2838 37.7998 45.6756 38.2895 45.6756Z" fill="white"/>
<defs>
<linearGradient id="paint0_linear_109_880" x1="46.4269" y1="0.111472" x2="46.4269" y2="46.8674" gradientUnits="userSpaceOnUse">
<stop stop-color="#F9F9F9"/>
<stop offset="1" stop-color="#383838" stop-opacity="0"/>
</linearGradient>
<linearGradient id="paint1_linear_109_880" x1="46.3832" y1="93.5406" x2="46.3832" y2="46.8056" gradientUnits="userSpaceOnUse">
<stop stop-color="#F9F9F9"/>
<stop offset="1" stop-color="#383838" stop-opacity="0"/>
</linearGradient>
</defs>
</svg>
