<svg width="94" height="94" viewBox="0 0 94 94" fill="none" xmlns="http://www.w3.org/2000/svg">
<path d="M46.1466 87.6675C68.7252 87.6675 87.0288 69.364 87.0288 46.7854C87.0288 24.2068 68.7252 5.90326 46.1466 5.90326C23.5681 5.90326 5.26465 24.2068 5.26465 46.7854C5.26465 69.364 23.5681 87.6675 46.1466 87.6675Z" fill="#3C7DDF"/>
<path opacity="0.51" d="M1.31881 46.7752H0V46.4821C0 37.2506 2.78412 28.1657 7.9127 20.5461C12.8948 13.073 20.0748 7.21177 28.427 3.69503C42.9336 -2.45926 59.4915 -0.847389 72.5328 7.94446C80.0059 12.9265 85.8671 20.1065 89.3838 28.4588C91.8749 34.1735 93.0471 40.3278 93.0471 46.6287C93.0471 46.7752 93.0471 46.7751 93.0471 46.9216H91.7285C91.7285 46.7751 91.7285 46.7752 91.7285 46.6287C91.7285 43.5515 91.4353 40.4743 90.8492 37.5437C89.6769 31.829 87.3324 26.2608 84.1088 21.4253C79.2732 14.0988 72.2398 8.53059 64.1806 5.01385C61.3965 3.8416 58.6124 2.96243 55.6817 2.37631C49.674 1.20406 43.5198 1.20406 37.5121 2.37631C31.7973 3.54856 26.2292 5.89301 21.3937 9.11669C14.0671 13.9522 8.49883 20.8392 4.98209 29.0449C3.80984 31.829 2.93076 34.6131 2.34464 37.5437C1.75851 40.4743 1.46531 43.5515 1.46531 46.6287C1.31878 46.6287 1.31881 46.7752 1.31881 46.7752Z" fill="url(#paint0_linear_109_835)"/>
<path opacity="0.51" d="M1.31881 46.7751H0V47.0682C0 53.2225 1.17225 59.3768 3.66327 65.238C4.83552 68.0221 6.30086 70.6597 7.9127 73.1507C9.52454 75.6417 11.4295 77.9862 13.6274 80.0377C15.6789 82.0891 18.0233 83.994 20.5143 85.7523C23.0054 87.3642 25.6429 88.8295 28.427 90.0018C40.003 94.8373 53.0443 94.8373 64.6203 90.0018C67.4044 88.8295 70.0418 87.3642 72.5328 85.7523C75.0238 84.1405 77.3684 82.2356 79.4199 80.0377C81.4713 77.9862 83.3762 75.6417 85.1346 73.1507C86.7464 70.6597 88.2116 68.0221 89.3838 65.238C91.8749 59.5233 93.0471 53.3691 93.0471 47.0682C93.0471 46.9217 93.0471 46.9217 93.0471 46.7751H91.7285C91.7285 46.9217 91.7285 46.9217 91.7285 47.0682C91.7285 50.1454 91.4353 53.2225 90.8492 56.1532C90.263 59.0838 89.3839 61.8678 88.2117 64.6519C87.0395 67.2895 85.7206 69.9271 84.1088 72.2716C82.4969 74.6161 80.5921 76.9605 78.5407 79.0119C76.4893 81.0634 74.2912 82.9683 71.8001 84.5801C69.4556 86.1919 66.8182 87.6572 64.1806 88.6829C61.3965 89.8552 58.6124 90.7345 55.6817 91.3206C52.7511 91.9067 49.674 92.1997 46.5969 92.1997C43.5197 92.1997 40.4427 91.9067 37.5121 91.3206C34.5814 90.7345 31.7973 89.8552 29.0132 88.6829C26.3756 87.5107 23.7381 86.1919 21.3937 84.5801C19.0492 82.9683 16.7045 81.0634 14.6531 79.0119C12.6017 76.9605 10.6969 74.7626 9.08502 72.2716C7.47318 69.9271 6.0078 67.2895 4.98209 64.6519C3.80984 61.8678 2.93076 59.0838 2.34464 56.1532C1.75851 53.2225 1.46531 50.1454 1.46531 47.0682C1.31878 46.9217 1.31881 46.9217 1.31881 46.7751Z" fill="url(#paint1_linear_109_835)"/>
<path d="M91.5088 29.3672L88.1385 31.5652C86.2337 26.2901 83.3031 21.4546 79.6399 17.3518L83.01 15.1538C86.6732 19.2567 89.6039 24.0921 91.5088 29.3672ZM15.0196 78.6017L11.6495 80.7996C7.69316 76.8433 4.61598 72.1543 2.27148 67.0257L5.64177 64.8277C7.83973 69.9563 10.9167 74.6453 15.0196 78.6017Z" fill="#92CEFC"/>
<path d="M40 49.2864C38.1486 50.1031 37 51.2412 37 52.5C37 54.9853 41.4772 57 47 57C52.5228 57 57 54.9853 57 52.5C57 51.2412 55.8514 50.1031 54 49.2864M53 43C53 47.0637 48.5 49 47 52C45.5 49 41 47.0637 41 43C41 39.6863 43.6863 37 47 37C50.3137 37 53 39.6863 53 43ZM48 43C48 43.5523 47.5523 44 47 44C46.4477 44 46 43.5523 46 43C46 42.4477 46.4477 42 47 42C47.5523 42 48 42.4477 48 43Z" stroke="white" stroke-width="2" stroke-linecap="round" stroke-linejoin="round"/>
<defs>
<linearGradient id="paint0_linear_109_835" x1="46.4269" y1="0.111472" x2="46.4269" y2="46.8674" gradientUnits="userSpaceOnUse">
<stop stop-color="#F9F9F9"/>
<stop offset="1" stop-color="#383838" stop-opacity="0"/>
</linearGradient>
<linearGradient id="paint1_linear_109_835" x1="46.3832" y1="93.5406" x2="46.3832" y2="46.8056" gradientUnits="userSpaceOnUse">
<stop stop-color="#F9F9F9"/>
<stop offset="1" stop-color="#383838" stop-opacity="0"/>
</linearGradient>
</defs>
</svg>
