<svg width="320" height="38" viewBox="0 0 320 38" fill="none" xmlns="http://www.w3.org/2000/svg">
<path d="M138.885 4H10.0916L4 11V38H314.671V24L305.969 14H147.152L138.885 4Z" fill="#1D3373" fill-opacity="0.639216"/>
<path d="M138.885 4H10.0916L4 11V38H314.671V24L305.969 14H147.152L138.885 4Z" fill="url(#paint0_linear_1_39824)"/>
<g filter="url(#filter0_d_1_39824)">
<path d="M11.6836 6H139.009L147.276 16H306.119L313.801 24.8284L315.542 24L306.84 14H148.023L139.756 4H10.9627L4.87109 11L6.61155 11.8284L11.6836 6Z" fill="#60B7FC" fill-opacity="0.47451" shape-rendering="crispEdges"/>
<path d="M11.6836 6H139.009L147.276 16H306.119L313.801 24.8284L315.542 24L306.84 14H148.023L139.756 4H10.9627L4.87109 11L6.61155 11.8284L11.6836 6Z" fill="url(#paint1_linear_1_39824)" shape-rendering="crispEdges"/>
</g>
<mask id="mask0_1_39824" style="mask-type:alpha" maskUnits="userSpaceOnUse" x="4" y="4" width="135" height="34">
<rect x="4.87109" y="4" width="134.015" height="34" fill="#D9D9D9"/>
</mask>
<g mask="url(#mask0_1_39824)">
<g filter="url(#filter1_f_1_39824)">
<ellipse cx="72.3136" cy="5" rx="36.1144" ry="16" fill="#3B5DD4" fill-opacity="0.490196"/>
</g>
<g filter="url(#filter2_f_1_39824)">
<ellipse cx="72.3138" cy="5" rx="14.3587" ry="7" fill="#3B5DD4" fill-opacity="0.99"/>
</g>
</g>
<rect x="4" y="37" width="310.671" height="1" fill="url(#paint2_linear_1_39824)"/>
<path d="M144.977 4H307.709L312.06 9H149.328L144.977 4Z" fill="url(#paint3_linear_1_39824)"/>
<path d="M216.336 18H206.764L218.077 32H227.649L216.336 18Z" fill="url(#paint4_linear_1_39824)"/>
<path d="M233.741 18H224.168L235.481 32H245.054L233.741 18Z" fill="url(#paint5_linear_1_39824)"/>
<path d="M241.573 18H251.145L262.458 32H252.886L241.573 18Z" fill="url(#paint6_linear_1_39824)"/>
<path d="M268.55 18H258.977L270.29 32H279.863L268.55 18Z" fill="url(#paint7_linear_1_39824)"/>
<path d="M276.382 18H285.954L297.267 32H287.695L276.382 18Z" fill="url(#paint8_linear_1_39824)"/>
<path d="M303.359 18H293.786L305.099 32H314.672L303.359 18Z" fill="url(#paint9_linear_1_39824)"/>
<path d="M308.58 14H314.672V21L308.58 14Z" fill="#FFE47A"/>
<defs>
<filter id="filter0_d_1_39824" x="0.871094" y="0" width="318.67" height="28.8284" filterUnits="userSpaceOnUse" color-interpolation-filters="sRGB">
<feFlood flood-opacity="0" result="BackgroundImageFix"/>
<feColorMatrix in="SourceAlpha" type="matrix" values="0 0 0 0 0 0 0 0 0 0 0 0 0 0 0 0 0 0 127 0" result="hardAlpha"/>
<feOffset/>
<feGaussianBlur stdDeviation="2"/>
<feComposite in2="hardAlpha" operator="out"/>
<feColorMatrix type="matrix" values="0 0 0 0 0.0509804 0 0 0 0 0.878431 0 0 0 0 1 0 0 0 0.54 0"/>
<feBlend mode="normal" in2="BackgroundImageFix" result="effect1_dropShadow_1_39824"/>
<feBlend mode="normal" in="SourceGraphic" in2="effect1_dropShadow_1_39824" result="shape"/>
</filter>
<filter id="filter1_f_1_39824" x="16.1992" y="-31" width="112.229" height="72" filterUnits="userSpaceOnUse" color-interpolation-filters="sRGB">
<feFlood flood-opacity="0" result="BackgroundImageFix"/>
<feBlend mode="normal" in="SourceGraphic" in2="BackgroundImageFix" result="shape"/>
<feGaussianBlur stdDeviation="10" result="effect1_foregroundBlur_1_39824"/>
</filter>
<filter id="filter2_f_1_39824" x="47.9551" y="-12" width="48.7168" height="34" filterUnits="userSpaceOnUse" color-interpolation-filters="sRGB">
<feFlood flood-opacity="0" result="BackgroundImageFix"/>
<feBlend mode="normal" in="SourceGraphic" in2="BackgroundImageFix" result="shape"/>
<feGaussianBlur stdDeviation="5" result="effect1_foregroundBlur_1_39824"/>
</filter>
<linearGradient id="paint0_linear_1_39824" x1="159.335" y1="4" x2="159.335" y2="29.5" gradientUnits="userSpaceOnUse">
<stop stop-color="#4C87F7" stop-opacity="0.560784"/>
<stop offset="1" stop-color="#4C87F7" stop-opacity="0"/>
</linearGradient>
<linearGradient id="paint1_linear_1_39824" x1="31.413" y1="14" x2="235.916" y2="14" gradientUnits="userSpaceOnUse">
<stop stop-color="#67B7FD" stop-opacity="0.701961"/>
<stop offset="0.225707" stop-color="#95DEFF" stop-opacity="0.968627"/>
<stop offset="0.448631" stop-color="#55C2FA" stop-opacity="0.431373"/>
<stop offset="0.720291" stop-color="#73C0FF" stop-opacity="0.780392"/>
<stop offset="1" stop-color="#95DEFF" stop-opacity="0"/>
</linearGradient>
<linearGradient id="paint2_linear_1_39824" x1="4" y1="38.0027" x2="314.671" y2="38.0027" gradientUnits="userSpaceOnUse">
<stop stop-color="#557FE9" stop-opacity="0.0470588"/>
<stop offset="0.376884" stop-color="#5375E1" stop-opacity="0.239216"/>
<stop offset="1" stop-color="#5571E2" stop-opacity="0.105882"/>
</linearGradient>
<linearGradient id="paint3_linear_1_39824" x1="144.977" y1="9.0001" x2="312.06" y2="9.0001" gradientUnits="userSpaceOnUse">
<stop stop-color="#5575E2" stop-opacity="0.552941"/>
<stop offset="1" stop-color="#5078E4" stop-opacity="0.0745098"/>
</linearGradient>
<linearGradient id="paint4_linear_1_39824" x1="261.659" y1="22.9961" x2="262.685" y2="31.9718" gradientUnits="userSpaceOnUse">
<stop offset="0.116361" stop-color="#5D7BFB" stop-opacity="0"/>
<stop offset="1" stop-color="#5D7BFB" stop-opacity="0.564706"/>
</linearGradient>
<linearGradient id="paint5_linear_1_39824" x1="261.659" y1="22.9961" x2="262.685" y2="31.9718" gradientUnits="userSpaceOnUse">
<stop offset="0.116361" stop-color="#5D7BFB" stop-opacity="0"/>
<stop offset="1" stop-color="#5D7BFB" stop-opacity="0.564706"/>
</linearGradient>
<linearGradient id="paint6_linear_1_39824" x1="261.659" y1="22.9961" x2="262.685" y2="31.9718" gradientUnits="userSpaceOnUse">
<stop offset="0.116361" stop-color="#5D7BFB" stop-opacity="0"/>
<stop offset="1" stop-color="#5D7BFB" stop-opacity="0.564706"/>
</linearGradient>
<linearGradient id="paint7_linear_1_39824" x1="261.659" y1="22.9961" x2="262.685" y2="31.9718" gradientUnits="userSpaceOnUse">
<stop offset="0.116361" stop-color="#5D7BFB" stop-opacity="0"/>
<stop offset="1" stop-color="#5D7BFB" stop-opacity="0.564706"/>
</linearGradient>
<linearGradient id="paint8_linear_1_39824" x1="261.659" y1="22.9961" x2="262.685" y2="31.9718" gradientUnits="userSpaceOnUse">
<stop offset="0.116361" stop-color="#5D7BFB" stop-opacity="0"/>
<stop offset="1" stop-color="#5D7BFB" stop-opacity="0.564706"/>
</linearGradient>
<linearGradient id="paint9_linear_1_39824" x1="261.659" y1="22.9961" x2="262.685" y2="31.9718" gradientUnits="userSpaceOnUse">
<stop offset="0.116361" stop-color="#5D7BFB" stop-opacity="0"/>
<stop offset="1" stop-color="#5D7BFB" stop-opacity="0.564706"/>
</linearGradient>
</defs>
</svg>
