<svg width="60" height="60" viewBox="0 0 60 60" fill="none" xmlns="http://www.w3.org/2000/svg">
<circle cx="30" cy="30" r="30" fill="#6D33B4"/>
<mask id="mask0_106_404" style="mask-type:luminance" maskUnits="userSpaceOnUse" x="22" y="26" width="19" height="13">
<path d="M22.6016 35.9484V28.6484L23.7016 27.6484C24.5016 26.9484 25.6016 26.7485 26.5016 27.2485L29.2016 28.6484C30.0016 29.0484 30.4016 29.9485 30.1016 30.7485C30.0016 30.8485 30.0016 31.0484 29.9016 31.1484L32.0016 31.5485L38.1016 29.6484C39.1016 29.3484 40.1016 29.9484 40.4016 30.9484C40.6016 31.4484 40.5016 32.0484 40.2016 32.4484C40.0016 32.8484 39.8016 33.0485 39.6016 33.2485C39.2016 33.5485 37.5016 35.2484 33.6016 37.6484C33.0016 38.0484 32.2016 38.1484 31.5016 37.8484L26.3016 36.0485H22.6016V35.9484Z" fill="white"/>
</mask>
<g mask="url(#mask0_106_404)">
<mask id="mask1_106_404" style="mask-type:luminance" maskUnits="userSpaceOnUse" x="-57" y="-209" width="526" height="826">
<path d="M468.602 -208.052H-56.3984V616.948H468.602V-208.052Z" fill="white"/>
</mask>
<g mask="url(#mask1_106_404)">
<path d="M45.6016 21.9484H17.6016V42.9484H45.6016V21.9484Z" fill="white"/>
</g>
</g>
<mask id="mask2_106_404" style="mask-type:luminance" maskUnits="userSpaceOnUse" x="20" y="19" width="18" height="20">
<path d="M34.1 28.95C31.8 28.95 30.6 27.95 30.6 25.45C30.6 23.65 31.6 21.55 33.7 19.15C33.9 18.95 34.3 18.95 34.5 19.15C36.6 21.55 37.6 23.65 37.6 25.45C37.6 27.95 36.4 28.95 34.1 28.95ZM21.1 27.25H20.8C20.4 27.25 20 26.95 20 26.45C20 25.95 20.3 25.65 20.8 25.65H21.8C22.2 25.65 22.6 25.95 22.6 26.45V37.45C22.6 37.85 22.3 38.25 21.8 38.25H20.8C20.4 38.25 20 37.95 20 37.45C20 36.95 20.3 36.65 20.8 36.65H21.1V27.25Z" fill="white"/>
</mask>
<g mask="url(#mask2_106_404)">
<mask id="mask3_106_404" style="mask-type:luminance" maskUnits="userSpaceOnUse" x="-57" y="-209" width="526" height="826">
<path d="M468.6 -208.05H-56.3999V616.95H468.6V-208.05Z" fill="white"/>
</mask>
<g mask="url(#mask3_106_404)">
<path d="M42.6001 13.95H15.1001V43.25H42.6001V13.95Z" fill="white"/>
</g>
</g>
</svg>
