<svg width="60" height="60" viewBox="0 0 60 60" fill="none" xmlns="http://www.w3.org/2000/svg">
<circle cx="30" cy="30" r="30" fill="#DE6316"/>
<mask id="mask0_106_485" style="mask-type:luminance" maskUnits="userSpaceOnUse" x="20" y="35" width="21" height="8">
<path d="M37.5 38.3242H32.5C32.2 38.3242 32 38.5242 32 38.8242C32 39.1242 32.2 39.3242 32.5 39.3242H37.5C37.8 39.3242 38 39.1242 38 38.8242C38 38.5242 37.7 38.3242 37.5 38.3242ZM24.5 39.3242C24.2 39.3242 24 39.1242 24 38.8242C24 38.5242 24.2 38.3242 24.5 38.3242C24.8 38.3242 25 38.5242 25 38.8242C25 39.1242 24.8 39.3242 24.5 39.3242ZM24.5 40.3242C25.3 40.3242 26 39.6242 26 38.8242C26 38.0242 25.3 37.3242 24.5 37.3242C23.7 37.3242 23 38.0242 23 38.8242C23 39.6242 23.7 40.3242 24.5 40.3242ZM23.5 35.3242H37.5C39.4 35.3242 41 36.9242 41 38.8242C41 40.7242 39.4 42.3242 37.5 42.3242H23.5C21.6 42.3242 20 40.7242 20 38.8242C20 36.9242 21.6 35.3242 23.5 35.3242Z" fill="white"/>
</mask>
<g mask="url(#mask0_106_485)">
<mask id="mask1_106_485" style="mask-type:luminance" maskUnits="userSpaceOnUse" x="-157" y="-106" width="525" height="826">
<path d="M368 -105.676H-157V719.324H368V-105.676Z" fill="white"/>
</mask>
<g mask="url(#mask1_106_485)">
<path d="M46 30.3242H15V47.3242H46V30.3242Z" fill="white"/>
</g>
</g>
<mask id="mask2_106_485" style="mask-type:luminance" maskUnits="userSpaceOnUse" x="21" y="21" width="19" height="14">
<path d="M23.0016 27.325C21.3016 25.625 21.3016 22.925 23.0016 21.225C23.3016 20.925 23.8016 20.925 24.1016 21.225C24.4016 21.525 24.4016 22.025 24.1016 22.325C23.0016 23.425 23.0016 25.225 24.1016 26.225C24.4016 26.525 24.4016 27.025 24.1016 27.325C23.8016 27.625 23.3016 27.625 23.0016 27.325ZM38.0016 27.325C37.7016 27.625 37.2016 27.625 36.9016 27.325C36.6016 27.025 36.6016 26.525 36.9016 26.225C38.0016 25.125 38.0016 23.325 36.9016 22.325C36.6016 22.025 36.6016 21.525 36.9016 21.225C37.2016 20.925 37.7016 20.925 38.0016 21.225C39.7016 22.925 39.7016 25.725 38.0016 27.325ZM25.9016 27.325C24.5016 25.925 24.5016 23.625 25.9016 22.225C26.2016 21.925 26.7016 21.925 27.0016 22.225C27.3016 22.525 27.3016 23.025 27.0016 23.325C26.2016 24.125 26.2016 25.425 27.0016 26.225C27.3016 26.525 27.3016 27.025 27.0016 27.325C26.7016 27.625 26.2016 27.625 25.9016 27.325ZM35.0016 27.325C34.7016 27.625 34.2016 27.625 33.9016 27.325C33.6016 27.025 33.6016 26.525 33.9016 26.225C34.7016 25.425 34.7016 24.125 33.9016 23.325C33.6016 23.025 33.6016 22.525 33.9016 22.225C34.2016 21.925 34.7016 21.925 35.0016 22.225C36.4016 23.725 36.4016 25.925 35.0016 27.325ZM29.8016 27.225C28.8016 26.925 28.0016 25.925 28.0016 24.825C28.0016 23.425 29.1016 22.325 30.5016 22.325C31.9016 22.325 33.0016 23.425 33.0016 24.825C33.0016 25.925 32.3016 26.925 31.2016 27.225V34.325H29.7016V27.225H29.8016Z" fill="white"/>
</mask>
<g mask="url(#mask2_106_485)">
<mask id="mask3_106_485" style="mask-type:luminance" maskUnits="userSpaceOnUse" x="-157" y="-106" width="526" height="826">
<path d="M368.001 -105.675H-156.999V719.325H368.001V-105.675Z" fill="white"/>
</mask>
<g mask="url(#mask3_106_485)">
<path d="M44.3014 16.125H16.7014V39.325H44.3014V16.125Z" fill="white"/>
</g>
</g>
</svg>
