<svg width="60" height="60" viewBox="0 0 60 60" fill="none" xmlns="http://www.w3.org/2000/svg">
<circle cx="30" cy="30" r="30" fill="#3A3F50"/>
<path d="M29.7625 20.9875C29.7625 19.6375 30.8625 18.5375 32.2125 18.5375C33.5625 18.5375 34.6625 19.6375 34.6625 20.9875C34.6625 22.3375 33.5625 23.4375 32.2125 23.4375C30.8625 23.4375 29.7625 22.3375 29.7625 20.9875ZM37.4125 28.9375C35.8875 28.6875 34.525 27.7625 33.7 26.425L32.65 24.6625C32.225 23.9375 31.425 23.4875 30.5625 23.4875C30.4875 23.4875 30.4125 23.4875 30.3375 23.475C30.125 23.4625 29.8875 23.4375 29.6375 23.5375L27.2125 24.5875C25.075 25.525 23.7 27.625 23.7 29.95V30.3625C23.7 31.1 24.3 31.7125 25.05 31.7125C25.7875 31.7125 26.4 31.1125 26.4 30.3625V29.85C26.4 28.85 26.9125 27.95 27.75 27.4375L26.175 35.5875L22.075 34.7875C21.3625 34.65 20.65 35.1125 20.5 35.8375C20.425 36.1875 20.5 36.55 20.7 36.85C20.9 37.15 21.2 37.35 21.5625 37.425C22.8875 37.675 25.325 38.1625 26.8375 38.4625C27.7125 38.6375 28.5875 38.075 28.775 37.2L29.4375 34.1375L31.4125 35.975V41.3875C31.4125 42.125 32.0125 42.7375 32.7625 42.7375C33.5125 42.7375 34.1125 42.1375 34.1125 41.3875V35.4C34.1125 34.875 33.9125 34.3875 33.5375 34.025L31.875 32.35L32.425 29.15C33.6375 30.45 35.2375 31.325 36.975 31.6125C37.3625 31.675 37.75 31.5625 38.05 31.3125C38.35 31.05 38.525 30.675 38.525 30.275C38.525 29.6 38.05 29.05 37.4125 28.9375Z" fill="white"/>
</svg>
