<svg width="60" height="60" viewBox="0 0 60 60" fill="none" xmlns="http://www.w3.org/2000/svg">
<circle cx="30" cy="30" r="30" fill="#336DFF"/>
<mask id="mask0_106_464" style="mask-type:luminance" maskUnits="userSpaceOnUse" x="36" y="29" width="5" height="3">
<path d="M36 29V32H41V29H36Z" fill="white"/>
</mask>
<g mask="url(#mask0_106_464)">
<mask id="mask1_106_464" style="mask-type:luminance" maskUnits="userSpaceOnUse" x="-456" y="-8" width="525" height="825">
<path d="M69 -8H-456V817H69V-8Z" fill="white"/>
</mask>
<g mask="url(#mask1_106_464)">
<path d="M46 24H31V37H46V24Z" fill="#2E2E2E"/>
</g>
</g>
<mask id="mask2_106_464" style="mask-type:luminance" maskUnits="userSpaceOnUse" x="21" y="23" width="21" height="14">
<path d="M21 33H42V35.5C42 36.3 41.3 37 40.5 37H40C40 36.8 40 36.7 40 36.5C40 35.1 38.9 34 37.5 34C36.1 34 35 35.1 35 36.5C35 36.7 35 36.8 35 37H28C28 36.8 28 36.7 28 36.5C28 35.1 26.9 34 25.5 34C24.1 34 23 35.1 23 36.5C23 36.7 23 36.8 23 37H22.5C21.7 37 21 36.3 21 35.5V33ZM36 32V29H42V32H36ZM36 23H36.5C37.6 23 38.6 23.5 39.3 24.4L41.3 26.9C41.6 27.2 41.8 27.6 41.9 28H36V23Z" fill="white"/>
</mask>
<g mask="url(#mask2_106_464)">
<mask id="mask3_106_464" style="mask-type:luminance" maskUnits="userSpaceOnUse" x="-456" y="-8" width="525" height="825">
<path d="M69 -8H-456V817H69V-8Z" fill="white"/>
</mask>
<g mask="url(#mask3_106_464)">
<path d="M47 18H16V42H47V18Z" fill="white"/>
</g>
</g>
<mask id="mask4_106_464" style="mask-type:luminance" maskUnits="userSpaceOnUse" x="21" y="20" width="18" height="18">
<path d="M39 36.4V36.5V36.6C38.9 37.4 38.3 38 37.5 38C36.7 38 36 37.3 36 36.5C36 35.7 36.7 35 37.5 35C38.3 35 38.9 35.6 39 36.4ZM27 36.4V36.5V36.6C26.9 37.4 26.3 38 25.5 38C24.7 38 24 37.3 24 36.5C24 35.7 24.7 35 25.5 35C26.3 35 26.9 35.6 27 36.4ZM35 23V32H21V23.5C21 21.6 22.6 20 24.5 20H31.5C33.3 20 34.7 21.3 35 23Z" fill="white"/>
</mask>
<g mask="url(#mask4_106_464)">
<mask id="mask5_106_464" style="mask-type:luminance" maskUnits="userSpaceOnUse" x="-456" y="-8" width="525" height="825">
<path d="M69 -8H-456V817H69V-8Z" fill="white"/>
</mask>
<g mask="url(#mask5_106_464)">
<path d="M44 15H16V43H44V15Z" fill="white"/>
</g>
</g>
</svg>
