<svg width="60" height="60" viewBox="0 0 60 60" fill="none" xmlns="http://www.w3.org/2000/svg">
<circle cx="30" cy="30" r="30" fill="#3A3F50"/>
<mask id="mask0_106_350" style="mask-type:luminance" maskUnits="userSpaceOnUse" x="18" y="21" width="25" height="19">
<path d="M32.4126 35.5494V38.0742H37.462V35.5494H32.4126ZM33.6749 24.1882V28.6065C33.6749 30.3738 35.0635 31.7624 36.8309 31.7624H42.5115C42.3853 33.151 41.6279 34.4133 40.2393 35.1708C39.7343 35.4232 39.2293 35.5494 38.7244 35.5494V38.0742H39.1031C39.9867 38.0742 40.7442 37.6955 41.3754 37.1905L41.5016 37.0643C41.7541 36.8118 42.1328 36.8118 42.3852 37.0643C42.6377 37.3168 42.6377 37.6955 42.3852 37.948L42.259 38.0742C41.3753 38.9578 40.3655 39.3365 39.1031 39.3365H27.9943C27.6156 39.3365 27.3631 39.0841 27.3631 38.7054C27.3631 38.3266 27.6156 38.0742 27.9943 38.0742H31.1502V35.5494H30.3928C28.7517 35.5494 27.3631 34.2871 27.2369 32.646L21.6825 32.0148C19.9152 31.8886 18.6528 30.3738 18.6528 28.6065C18.6528 28.2277 18.9053 27.9753 19.284 27.9753H27.3631V27.3441C27.3631 25.5768 28.7517 24.1882 30.519 24.1882H31.2765V22.9258H23.0711C22.6924 22.9258 22.4399 22.6733 22.4399 22.2946C22.4399 21.9159 22.6924 21.6635 23.0711 21.6635H42.0066C42.3853 21.6635 42.6377 21.9159 42.6377 22.2946C42.6377 22.6733 42.3853 22.9258 42.0066 22.9258H32.4126V24.1882H33.4225C33.5487 24.1882 33.5487 24.1882 33.6749 24.1882Z" fill="white"/>
</mask>
<g mask="url(#mask0_106_350)">
<mask id="mask1_106_350" style="mask-type:luminance" maskUnits="userSpaceOnUse" x="-587" y="-648" width="664" height="1043">
<path d="M76.5955 -647.389H-586.145V394.061H76.5955V-647.389Z" fill="white"/>
</mask>
<g mask="url(#mask1_106_350)">
<path d="M48.8236 15.3516H12.2151V45.6483H48.8236V15.3516Z" fill="white"/>
</g>
</g>
<mask id="mask2_106_350" style="mask-type:luminance" maskUnits="userSpaceOnUse" x="16" y="24" width="27" height="8">
<path d="M18.146 31.3837C16.8837 30.7525 16 29.4901 16 27.9753C16 25.8292 17.6411 24.1882 19.7871 24.1882C21.4282 24.1882 22.8167 25.1981 23.3217 26.7129H19.1559C18.146 26.7129 17.2624 27.5966 17.2624 28.6064C17.2624 29.6163 17.6411 30.6262 18.146 31.3837ZM34.9355 24.3144C37.9651 24.8193 40.6161 26.7129 42.1309 29.6163C42.2572 29.8688 42.3834 30.2475 42.5096 30.5H36.9552C35.9454 30.5 35.0617 29.6163 35.0617 28.6064L34.9355 24.3144Z" fill="white"/>
</mask>
<g mask="url(#mask2_106_350)">
<mask id="mask3_106_350" style="mask-type:luminance" maskUnits="userSpaceOnUse" x="-587" y="-648" width="664" height="1043">
<path d="M76.5936 -647.389H-586.147V394.061H76.5936V-647.389Z" fill="white"/>
</mask>
<g mask="url(#mask3_106_350)">
<path d="M48.6945 17.8763H9.6875V37.6955H48.6945V17.8763Z" fill="white"/>
</g>
</g>
</svg>
