<svg width="60" height="60" viewBox="0 0 60 60" fill="none" xmlns="http://www.w3.org/2000/svg">
<circle cx="30" cy="30" r="30" fill="#02C8D6"/>
<mask id="mask0_109_511" style="mask-type:luminance" maskUnits="userSpaceOnUse" x="19" y="19" width="21" height="21">
<path d="M22.5 28C22.2 28 22 28.2 22 28.5V36.5C22 36.8 22.2 37 22.5 37H36.5C36.8 37 37 36.8 37 36.5V28.5C37 28.2 36.8 28 36.5 28H22.5ZM27.5 23H31.5C31.8 23 32 22.8 32 22.5C32 22.2 31.8 22 31.5 22H27.5C27.2 22 27 22.2 27 22.5C27 22.8 27.2 23 27.5 23ZM35 24C35.6 24 36 23.6 36 23C36 22.4 35.6 22 35 22C34.4 22 34 22.4 34 23C34 23.6 34.4 24 35 24ZM24 24C24.6 24 25 23.6 25 23C25 22.4 24.6 22 24 22C23.4 22 23 22.4 23 23C23 23.6 23.4 24 24 24ZM40 26V37.5C40 38.9 38.9 40 37.5 40H21.5C20.1 40 19 38.9 19 37.5V26H40ZM40 25H19V21.5C19 20.1 20.1 19 21.5 19H37.5C38.9 19 40 20.1 40 21.5V25Z" fill="white"/>
</mask>
<g mask="url(#mask0_109_511)">
<mask id="mask1_109_511" style="mask-type:luminance" maskUnits="userSpaceOnUse" x="-108" y="-308" width="525" height="825">
<path d="M417 -308H-108V517H417V-308Z" fill="white"/>
</mask>
<g mask="url(#mask1_109_511)">
<path d="M45 14H14V45H45V14Z" fill="white"/>
</g>
</g>
</svg>
