<svg width="87" height="75" viewBox="0 0 87 75" fill="none" xmlns="http://www.w3.org/2000/svg">
<g id="Group 1739332482">
<g id="cloud">
<g id="shadow" filter="url(#filter0_f_415_847)">
<ellipse cx="43.623" cy="45.752" rx="21.2871" ry="6.41992" fill="#004E67" fill-opacity="0.7"/>
</g>
<g id="cloud_2" filter="url(#filter1_bi_415_847)">
<path fill-rule="evenodd" clip-rule="evenodd" d="M59.5039 20.4102C59.5039 20.9428 59.4834 21.4707 59.443 21.993C61.6629 20.1599 64.5095 19.0586 67.6133 19.0586C74.7045 19.0586 80.4531 24.8072 80.4531 31.8984C80.4531 38.763 75.0662 44.3694 68.2891 44.7208V44.7383H67.6133H20.3086H18.957V44.668C12.5011 43.9926 7.46875 38.5332 7.46875 31.8984C7.46875 25.2499 12.5219 19.7817 18.9971 19.1248C19.6602 8.52693 28.4655 0.136719 39.2305 0.136719C50.4272 0.136719 59.5039 9.21345 59.5039 20.4102Z" fill="url(#paint0_linear_415_847)"/>
</g>
</g>
<g id="Drops">
<path id="drop" d="M53.8834 24.2239L48.445 30.3942C47.8329 31.0452 47.3974 31.8299 47.1744 32.6835C46.9515 33.537 46.9476 34.4348 47.163 35.3025C47.3407 35.991 47.711 36.6262 48.2342 37.1401C48.7574 37.6541 49.4138 38.0274 50.1331 38.2202C50.8525 38.4129 51.6076 38.4178 52.3177 38.2343C53.0278 38.0508 53.666 37.6858 54.1641 37.1785C54.7822 36.5342 55.2284 35.7571 55.4671 34.9091C55.7059 34.0612 55.7305 33.166 55.539 32.2951L53.8834 24.2239Z" fill="url(#paint1_linear_415_847)"/>
<path id="drop_2" d="M36.3451 21.3338L32.1986 25.1262C31.7351 25.5235 31.3817 26.0246 31.1677 26.588C30.9537 27.1514 30.8852 27.7609 30.9679 28.3662C31.0381 28.8468 31.243 29.3054 31.5607 29.6929C31.8784 30.0804 32.2969 30.3821 32.7714 30.5658C33.2458 30.7495 33.7584 30.8081 34.2542 30.7356C34.75 30.663 35.2103 30.4619 35.5858 30.1538C36.0528 29.7615 36.4129 29.2664 36.6373 28.7079C36.8616 28.1494 36.944 27.5432 36.8778 26.9376L36.3451 21.3338Z" fill="url(#paint2_linear_415_847)"/>
<path id="drop_3" d="M39.7764 37.241L33.3614 44.683C32.6519 45.4886 32.1454 46.4463 31.8816 47.4809C31.6179 48.5155 31.604 49.5991 31.841 50.6467C32.0366 51.4732 32.4596 52.2348 33.064 52.8491C33.6684 53.4634 34.4313 53.907 35.27 54.1317C36.1086 54.3564 36.991 54.3537 37.8216 54.1239C38.6522 53.8941 39.3994 53.446 39.982 52.8281C40.7111 52.0393 41.2408 51.094 41.5297 50.0661C41.8186 49.0382 41.8588 47.9556 41.6471 46.9031L39.7764 37.241Z" fill="url(#paint3_linear_415_847)"/>
</g>
<path id="Intersect" fill-rule="evenodd" clip-rule="evenodd" d="M41.2279 44.7383H33.3131C33.3291 44.7198 33.3452 44.7014 33.3613 44.683L39.7763 37.241L41.2279 44.7383ZM32.1986 25.1263L36.3451 21.3339L36.8778 26.9377C36.944 27.5433 36.8616 28.1495 36.6373 28.708C36.4129 29.2665 36.0528 29.7616 35.5858 30.1539C35.2103 30.462 34.75 30.6631 34.2542 30.7357C33.7584 30.8082 33.2458 30.7496 32.7714 30.5659C32.2969 30.3822 31.8784 30.0805 31.5607 29.693C31.243 29.3055 31.0381 28.8469 30.9679 28.3663C30.8852 27.761 30.9537 27.1515 31.1677 26.5881C31.3817 26.0247 31.7351 25.5236 32.1986 25.1263ZM48.445 30.3943L53.8834 24.224L55.539 32.2952C55.7304 33.1661 55.7058 34.0613 55.4671 34.9092C55.2283 35.7571 54.7821 36.5343 54.1641 37.1785C53.666 37.6859 53.0277 38.0509 52.3176 38.2344C51.6076 38.4179 50.8524 38.413 50.1331 38.2203C49.4138 38.0275 48.7573 37.6542 48.2341 37.1402C47.7109 36.6263 47.3407 35.991 47.163 35.3026C46.9476 34.4348 46.9515 33.5371 47.1744 32.6835C47.3973 31.83 47.8328 31.0453 48.445 30.3943Z" fill="#A9DDFA"/>
</g>
<defs>
<filter id="filter0_f_415_847" x="0.335938" y="17.332" width="86.5742" height="56.8398" filterUnits="userSpaceOnUse" color-interpolation-filters="sRGB">
<feFlood flood-opacity="0" result="BackgroundImageFix"/>
<feBlend mode="normal" in="SourceGraphic" in2="BackgroundImageFix" result="shape"/>
<feGaussianBlur stdDeviation="11" result="effect1_foregroundBlur_415_847"/>
</filter>
<filter id="filter1_bi_415_847" x="0.46875" y="-6.86328" width="86.9844" height="58.6016" filterUnits="userSpaceOnUse" color-interpolation-filters="sRGB">
<feFlood flood-opacity="0" result="BackgroundImageFix"/>
<feGaussianBlur in="BackgroundImageFix" stdDeviation="3.5"/>
<feComposite in2="SourceAlpha" operator="in" result="effect1_backgroundBlur_415_847"/>
<feBlend mode="normal" in="SourceGraphic" in2="effect1_backgroundBlur_415_847" result="shape"/>
<feColorMatrix in="SourceAlpha" type="matrix" values="0 0 0 0 0 0 0 0 0 0 0 0 0 0 0 0 0 0 127 0" result="hardAlpha"/>
<feOffset dy="2"/>
<feGaussianBlur stdDeviation="4"/>
<feComposite in2="hardAlpha" operator="arithmetic" k2="-1" k3="1"/>
<feColorMatrix type="matrix" values="0 0 0 0 0 0 0 0 0 0.82 0 0 0 0 1 0 0 0 0.25 0"/>
<feBlend mode="normal" in2="shape" result="effect2_innerShadow_415_847"/>
</filter>
<linearGradient id="paint0_linear_415_847" x1="45.3125" y1="60.6191" x2="72.6816" y2="0.136719" gradientUnits="userSpaceOnUse">
<stop stop-color="#0082DF"/>
<stop offset="0.299998" stop-color="#48B2FF" stop-opacity="0.75"/>
<stop offset="1" stop-color="#3BADFF" stop-opacity="0"/>
</linearGradient>
<linearGradient id="paint1_linear_415_847" x1="53.8857" y1="24.2245" x2="49.4241" y2="40.8753" gradientUnits="userSpaceOnUse">
<stop stop-color="#E4F5FF"/>
<stop offset="0.146777" stop-color="#D7F0FF"/>
<stop offset="1" stop-color="#0072DC"/>
</linearGradient>
<linearGradient id="paint2_linear_415_847" x1="36.3466" y1="21.3344" x2="32.0951" y2="32.3173" gradientUnits="userSpaceOnUse">
<stop stop-color="#E4F5FF"/>
<stop offset="0.146777" stop-color="#D7F0FF"/>
<stop offset="1" stop-color="#0072DC"/>
</linearGradient>
<linearGradient id="paint3_linear_415_847" x1="39.7945" y1="37.2459" x2="34.6459" y2="56.4607" gradientUnits="userSpaceOnUse">
<stop stop-color="#E4F5FF"/>
<stop offset="0.0777368" stop-color="#D7F0FF"/>
<stop offset="1" stop-color="#0072DC"/>
</linearGradient>
</defs>
</svg>
