<svg width="88" height="75" viewBox="0 0 88 75" fill="none" xmlns="http://www.w3.org/2000/svg">
<g id="Group 7">
<g id="shadow" filter="url(#filter0_f_415_909)">
<ellipse cx="44.0918" cy="45.752" rx="21.2871" ry="6.41992" fill="#004E67" fill-opacity="0.7"/>
</g>
<path id="snow 3" fill-rule="evenodd" clip-rule="evenodd" d="M37.1094 37.856C37.1094 36.3008 35.8487 35.0402 34.2935 35.0402C32.7384 35.0402 31.4777 36.3008 31.4777 37.856V37.941L31.4176 37.8809C30.318 36.7812 28.5351 36.7812 27.4355 37.8809C26.3358 38.9805 26.3358 40.7634 27.4355 41.863L27.4956 41.9231H27.4107C25.8555 41.9231 24.5948 43.1838 24.5948 44.7389C24.5948 46.294 25.8555 47.5547 27.4107 47.5547H27.4956L27.4355 47.6148C26.3358 48.7145 26.3358 50.4974 27.4355 51.597C28.5351 52.6966 30.318 52.6966 31.4176 51.597L31.4777 51.5369V51.6219C31.4777 53.177 32.7384 54.4377 34.2935 54.4377C35.8487 54.4377 37.1094 53.177 37.1094 51.6219V51.5369L37.1695 51.597C38.2691 52.6966 40.052 52.6966 41.1516 51.597C42.2513 50.4974 42.2513 48.7145 41.1516 47.6148L41.0915 47.5547H41.1766C42.7317 47.5547 43.9924 46.294 43.9924 44.7389C43.9924 43.1838 42.7317 41.9231 41.1766 41.9231H41.0915L41.1516 41.863C42.2512 40.7634 42.2512 38.9805 41.1516 37.8809C40.052 36.7812 38.2691 36.7812 37.1695 37.8809L37.1094 37.941V37.856Z" fill="url(#paint0_linear_415_909)"/>
<path id="snow 2" fill-rule="evenodd" clip-rule="evenodd" d="M60.5261 34.0873C60.5261 32.2984 59.0759 30.8483 57.287 30.8483C55.4981 30.8483 54.0479 32.2984 54.0479 34.0873V34.2145L53.958 34.1246C52.6931 32.8597 50.6423 32.8597 49.3773 34.1246C48.1124 35.3895 48.1124 37.4404 49.3773 38.7053L49.4674 38.7955H49.34C47.5511 38.7955 46.101 40.2456 46.101 42.0345C46.101 43.8234 47.5511 45.2736 49.34 45.2736H49.4672L49.3772 45.3636C48.1122 46.6285 48.1122 48.6794 49.3772 49.9443C50.6421 51.2092 52.693 51.2092 53.9579 49.9443L54.0479 49.8543V49.9816C54.0479 51.7705 55.4981 53.2207 57.287 53.2207C59.0759 53.2207 60.5261 51.7705 60.5261 49.9816V49.8541L60.6163 49.9443C61.8812 51.2092 63.9321 51.2092 65.197 49.9443C66.4619 48.6794 66.4619 46.6285 65.197 45.3636L65.107 45.2736H65.2343C67.0232 45.2736 68.4734 43.8234 68.4734 42.0345C68.4734 40.2456 67.0232 38.7955 65.2343 38.7955H65.1067L65.1969 38.7053C66.4618 37.4404 66.4618 35.3895 65.1969 34.1246C63.9319 32.8597 61.8811 32.8597 60.6161 34.1246L60.5261 34.2147V34.0873Z" fill="url(#paint1_linear_415_909)"/>
<path id="snow" fill-rule="evenodd" clip-rule="evenodd" d="M51.5346 56.4801C51.5346 55.1683 50.4712 54.1049 49.1594 54.1049C47.8476 54.1049 46.7841 55.1683 46.7841 56.4801V56.5734L46.7182 56.5075C45.7906 55.5799 44.2867 55.5799 43.3591 56.5075C42.4315 57.4351 42.4315 58.939 43.3591 59.8666L43.4252 59.9326H43.3318C42.02 59.9326 40.9565 60.9961 40.9565 62.3079C40.9565 63.6197 42.02 64.6832 43.3318 64.6832H43.425L43.359 64.7492C42.4314 65.6768 42.4314 67.1807 43.359 68.1083C44.2866 69.0359 45.7905 69.0359 46.7181 68.1083L46.7841 68.0423V68.1356C46.7841 69.4475 47.8476 70.5109 49.1594 70.5109C50.4712 70.5109 51.5346 69.4475 51.5346 68.1356V68.0421L51.6008 68.1083C52.5284 69.0359 54.0324 69.0359 54.9599 68.1083C55.8875 67.1807 55.8875 65.6768 54.9599 64.7492L54.8939 64.6832H54.9873C56.2991 64.6832 57.3626 63.6197 57.3626 62.3079C57.3626 60.9961 56.2991 59.9326 54.9873 59.9326H54.8938L54.9598 59.8666C55.8874 58.939 55.8874 57.4351 54.9598 56.5075C54.0322 55.5799 52.5283 55.5799 51.6007 56.5075L51.5346 56.5735V56.4801Z" fill="url(#paint2_linear_415_909)"/>
<g id="cloud" filter="url(#filter1_bi_415_909)">
<path fill-rule="evenodd" clip-rule="evenodd" d="M59.9727 20.4102C59.9727 20.9428 59.9521 21.4707 59.9118 21.993C62.1317 20.1599 64.9782 19.0586 68.082 19.0586C75.1733 19.0586 80.9219 24.8072 80.9219 31.8984C80.9219 38.763 75.5349 44.3694 68.7578 44.7208V44.7383H68.082H20.7773H19.4258V44.668C12.9698 43.9926 7.9375 38.5332 7.9375 31.8984C7.9375 25.2499 12.9907 19.7817 19.4659 19.1248C20.1289 8.52693 28.9343 0.136719 39.6992 0.136719C50.8959 0.136719 59.9727 9.21345 59.9727 20.4102Z" fill="url(#paint3_linear_415_909)"/>
</g>
<path id="Intersect" fill-rule="evenodd" clip-rule="evenodd" d="M43.9924 44.7383H24.5948C24.5952 43.1834 25.8557 41.9231 27.4107 41.9231H27.4956L27.4355 41.863C26.3358 40.7634 26.3358 38.9805 27.4355 37.8809C28.5351 36.7812 30.318 36.7812 31.4176 37.8809L31.4777 37.941V37.856C31.4777 36.3008 32.7384 35.0402 34.2935 35.0402C35.8487 35.0402 37.1094 36.3008 37.1094 37.856V37.941L37.1695 37.8809C38.2691 36.7812 40.052 36.7812 41.1516 37.8809C42.2512 38.9805 42.2512 40.7634 41.1516 41.863L41.0915 41.9231H41.1766C42.7315 41.9231 43.992 43.1834 43.9924 44.7383Z" fill="#A9DDFA"/>
</g>
<defs>
<filter id="filter0_f_415_909" x="0.804688" y="17.332" width="86.5742" height="56.8398" filterUnits="userSpaceOnUse" color-interpolation-filters="sRGB">
<feFlood flood-opacity="0" result="BackgroundImageFix"/>
<feBlend mode="normal" in="SourceGraphic" in2="BackgroundImageFix" result="shape"/>
<feGaussianBlur stdDeviation="11" result="effect1_foregroundBlur_415_909"/>
</filter>
<filter id="filter1_bi_415_909" x="0.9375" y="-6.86328" width="86.9844" height="58.6016" filterUnits="userSpaceOnUse" color-interpolation-filters="sRGB">
<feFlood flood-opacity="0" result="BackgroundImageFix"/>
<feGaussianBlur in="BackgroundImageFix" stdDeviation="3.5"/>
<feComposite in2="SourceAlpha" operator="in" result="effect1_backgroundBlur_415_909"/>
<feBlend mode="normal" in="SourceGraphic" in2="effect1_backgroundBlur_415_909" result="shape"/>
<feColorMatrix in="SourceAlpha" type="matrix" values="0 0 0 0 0 0 0 0 0 0 0 0 0 0 0 0 0 0 127 0" result="hardAlpha"/>
<feOffset dy="2"/>
<feGaussianBlur stdDeviation="4"/>
<feComposite in2="hardAlpha" operator="arithmetic" k2="-1" k3="1"/>
<feColorMatrix type="matrix" values="0 0 0 0 0 0 0 0 0 0.82 0 0 0 0 1 0 0 0 0.25 0"/>
<feBlend mode="normal" in2="shape" result="effect2_innerShadow_415_909"/>
</filter>
<linearGradient id="paint0_linear_415_909" x1="27.3639" y1="50.512" x2="45.7867" y2="34.9625" gradientUnits="userSpaceOnUse">
<stop stop-color="#0056D6"/>
<stop offset="1" stop-color="#ADD8FF"/>
</linearGradient>
<linearGradient id="paint1_linear_415_909" x1="49.2947" y1="48.6929" x2="70.5429" y2="30.7586" gradientUnits="userSpaceOnUse">
<stop stop-color="#0056D6"/>
<stop offset="1" stop-color="#ADD8FF"/>
</linearGradient>
<linearGradient id="paint2_linear_415_909" x1="43.2986" y1="67.1906" x2="58.8802" y2="54.0391" gradientUnits="userSpaceOnUse">
<stop stop-color="#0056D6"/>
<stop offset="1" stop-color="#ADD8FF"/>
</linearGradient>
<linearGradient id="paint3_linear_415_909" x1="45.7813" y1="60.6191" x2="73.1504" y2="0.136719" gradientUnits="userSpaceOnUse">
<stop stop-color="#0082DF"/>
<stop offset="0.299998" stop-color="#48B2FF" stop-opacity="0.75"/>
<stop offset="1" stop-color="#3BADFF" stop-opacity="0"/>
</linearGradient>
</defs>
</svg>
