<svg width="88" height="75" viewBox="0 0 88 75" fill="none" xmlns="http://www.w3.org/2000/svg">
<g id="Group 12">
<g id="cloud">
<g id="shadow" filter="url(#filter0_f_415_771)">
<ellipse cx="44.084" cy="46.0371" rx="21.2871" ry="6.41992" fill="#004E67" fill-opacity="0.7"/>
</g>
<g id="cloud_2" filter="url(#filter1_bi_415_771)">
<path fill-rule="evenodd" clip-rule="evenodd" d="M59.9648 20.6953C59.9648 21.228 59.9443 21.7558 59.904 22.2782C62.1239 20.445 64.9704 19.3438 68.0742 19.3438C75.1655 19.3438 80.9141 25.0923 80.9141 32.1836C80.9141 39.0482 75.5271 44.6545 68.75 45.006V45.0234H68.0742H20.7695H19.418V44.9532C12.962 44.2778 7.92969 38.8184 7.92969 32.1836C7.92969 25.5351 12.9829 20.0668 19.4581 19.4099C20.1211 8.81209 28.9264 0.421875 39.6914 0.421875C50.8881 0.421875 59.9648 9.4986 59.9648 20.6953Z" fill="url(#paint0_linear_415_771)"/>
</g>
</g>
<path id="rain" fill-rule="evenodd" clip-rule="evenodd" d="M30.4094 35.9898C30.4094 37.3455 29.3104 38.4445 27.9547 38.4445C26.599 38.4445 25.5 37.3455 25.5 35.9898C25.5 34.6341 26.599 33.5352 27.9547 33.5352C29.3104 33.5352 30.4094 34.6341 30.4094 35.9898ZM30.4094 44.9539C30.4094 46.3096 29.3104 47.4086 27.9547 47.4086C26.599 47.4086 25.5 46.3096 25.5 44.9539C25.5 43.5983 26.599 42.4992 27.9547 42.4992C29.3104 42.4992 30.4094 43.5983 30.4094 44.9539ZM27.9547 56.3727C29.3104 56.3727 30.4094 55.2737 30.4094 53.918C30.4094 52.5623 29.3104 51.4633 27.9547 51.4633C26.599 51.4633 25.5 52.5623 25.5 53.918C25.5 55.2737 26.599 56.3727 27.9547 56.3727ZM30.4094 62.882C30.4094 64.2377 29.3104 65.3367 27.9547 65.3367C26.599 65.3367 25.5 64.2377 25.5 62.882C25.5 61.5264 26.599 60.4274 27.9547 60.4274C29.3104 60.4274 30.4094 61.5264 30.4094 62.882ZM38.9461 38.4445C40.3017 38.4445 41.4007 37.3455 41.4007 35.9898C41.4007 34.6341 40.3017 33.5352 38.9461 33.5352C37.5904 33.5352 36.4913 34.6341 36.4913 35.9898C36.4913 37.3455 37.5904 38.4445 38.9461 38.4445ZM41.4007 44.9539C41.4007 46.3096 40.3017 47.4086 38.9461 47.4086C37.5904 47.4086 36.4913 46.3096 36.4913 44.9539C36.4913 43.5983 37.5904 42.4992 38.9461 42.4992C40.3017 42.4992 41.4007 43.5983 41.4007 44.9539ZM38.9461 56.3727C40.3017 56.3727 41.4007 55.2737 41.4007 53.918C41.4007 52.5623 40.3017 51.4633 38.9461 51.4633C37.5904 51.4633 36.4913 52.5623 36.4913 53.918C36.4913 55.2737 37.5904 56.3727 38.9461 56.3727ZM41.4007 62.882C41.4007 64.2377 40.3017 65.3367 38.9461 65.3367C37.5904 65.3367 36.4913 64.2377 36.4913 62.882C36.4913 61.5264 37.5904 60.4274 38.9461 60.4274C40.3017 60.4274 41.4007 61.5264 41.4007 62.882ZM49.9376 38.4445C51.2932 38.4445 52.3922 37.3455 52.3922 35.9898C52.3922 34.6341 51.2932 33.5352 49.9376 33.5352C48.5819 33.5352 47.4829 34.6341 47.4829 35.9898C47.4829 37.3455 48.5819 38.4445 49.9376 38.4445ZM52.3922 44.9539C52.3922 46.3096 51.2932 47.4086 49.9376 47.4086C48.5819 47.4086 47.4829 46.3096 47.4829 44.9539C47.4829 43.5983 48.5819 42.4992 49.9376 42.4992C51.2932 42.4992 52.3922 43.5983 52.3922 44.9539ZM49.9376 56.3727C51.2932 56.3727 52.3922 55.2737 52.3922 53.918C52.3922 52.5623 51.2932 51.4633 49.9376 51.4633C48.5819 51.4633 47.4829 52.5623 47.4829 53.918C47.4829 55.2737 48.5819 56.3727 49.9376 56.3727ZM52.3922 62.882C52.3922 64.2377 51.2932 65.3367 49.9376 65.3367C48.5819 65.3367 47.4829 64.2377 47.4829 62.882C47.4829 61.5264 48.5819 60.4274 49.9376 60.4274C51.2932 60.4274 52.3922 61.5264 52.3922 62.882ZM60.929 38.4445C62.2847 38.4445 63.3837 37.3455 63.3837 35.9898C63.3837 34.6341 62.2847 33.5352 60.929 33.5352C59.5733 33.5352 58.4743 34.6341 58.4743 35.9898C58.4743 37.3455 59.5733 38.4445 60.929 38.4445ZM63.3837 44.9539C63.3837 46.3096 62.2847 47.4086 60.929 47.4086C59.5733 47.4086 58.4743 46.3096 58.4743 44.9539C58.4743 43.5983 59.5733 42.4992 60.929 42.4992C62.2847 42.4992 63.3837 43.5983 63.3837 44.9539ZM60.929 56.3727C62.2847 56.3727 63.3837 55.2737 63.3837 53.918C63.3837 52.5623 62.2847 51.4633 60.929 51.4633C59.5733 51.4633 58.4743 52.5623 58.4743 53.918C58.4743 55.2737 59.5733 56.3727 60.929 56.3727ZM63.3837 62.882C63.3837 64.2377 62.2847 65.3367 60.929 65.3367C59.5733 65.3367 58.4743 64.2377 58.4743 62.882C58.4743 61.5264 59.5733 60.4274 60.929 60.4274C62.2847 60.4274 63.3837 61.5264 63.3837 62.882Z" fill="url(#paint1_linear_415_771)"/>
<path id="Intersect" fill-rule="evenodd" clip-rule="evenodd" d="M30.4084 45.0234H25.501C25.5003 45.0004 25.5 44.9772 25.5 44.9539C25.5 43.5983 26.599 42.4992 27.9547 42.4992C29.3104 42.4992 30.4094 43.5983 30.4094 44.9539C30.4094 44.9772 30.4091 45.0004 30.4084 45.0234ZM41.3998 45.0234H36.4923C36.4917 45.0004 36.4913 44.9772 36.4913 44.9539C36.4913 43.5983 37.5904 42.4992 38.9461 42.4992C40.3017 42.4992 41.4007 43.5983 41.4007 44.9539C41.4007 44.9772 41.4004 45.0004 41.3998 45.0234ZM52.3913 45.0234H47.4838C47.4832 45.0004 47.4829 44.9772 47.4829 44.9539C47.4829 43.5983 48.5819 42.4992 49.9376 42.4992C51.2932 42.4992 52.3922 43.5983 52.3922 44.9539C52.3922 44.9772 52.3919 45.0004 52.3913 45.0234ZM63.3827 45.0234H58.4752C58.4746 45.0004 58.4743 44.9772 58.4743 44.9539C58.4743 43.5983 59.5733 42.4992 60.929 42.4992C62.2847 42.4992 63.3837 43.5983 63.3837 44.9539C63.3837 44.9772 63.3833 45.0004 63.3827 45.0234ZM27.9547 38.4445C29.3104 38.4445 30.4094 37.3455 30.4094 35.9898C30.4094 34.6341 29.3104 33.5352 27.9547 33.5352C26.599 33.5352 25.5 34.6341 25.5 35.9898C25.5 37.3455 26.599 38.4445 27.9547 38.4445ZM41.4007 35.9898C41.4007 37.3455 40.3017 38.4445 38.9461 38.4445C37.5904 38.4445 36.4913 37.3455 36.4913 35.9898C36.4913 34.6341 37.5904 33.5352 38.9461 33.5352C40.3017 33.5352 41.4007 34.6341 41.4007 35.9898ZM52.3922 35.9898C52.3922 37.3455 51.2932 38.4445 49.9376 38.4445C48.5819 38.4445 47.4829 37.3455 47.4829 35.9898C47.4829 34.6341 48.5819 33.5352 49.9376 33.5352C51.2932 33.5352 52.3922 34.6341 52.3922 35.9898ZM63.3837 35.9898C63.3837 37.3455 62.2847 38.4445 60.929 38.4445C59.5733 38.4445 58.4743 37.3455 58.4743 35.9898C58.4743 34.6341 59.5733 33.5352 60.929 33.5352C62.2847 33.5352 63.3837 34.6341 63.3837 35.9898Z" fill="#A9DDFA"/>
</g>
<defs>
<filter id="filter0_f_415_771" x="0.796875" y="17.6172" width="86.5742" height="56.8398" filterUnits="userSpaceOnUse" color-interpolation-filters="sRGB">
<feFlood flood-opacity="0" result="BackgroundImageFix"/>
<feBlend mode="normal" in="SourceGraphic" in2="BackgroundImageFix" result="shape"/>
<feGaussianBlur stdDeviation="11" result="effect1_foregroundBlur_415_771"/>
</filter>
<filter id="filter1_bi_415_771" x="0.929688" y="-6.57812" width="86.9844" height="58.6016" filterUnits="userSpaceOnUse" color-interpolation-filters="sRGB">
<feFlood flood-opacity="0" result="BackgroundImageFix"/>
<feGaussianBlur in="BackgroundImageFix" stdDeviation="3.5"/>
<feComposite in2="SourceAlpha" operator="in" result="effect1_backgroundBlur_415_771"/>
<feBlend mode="normal" in="SourceGraphic" in2="effect1_backgroundBlur_415_771" result="shape"/>
<feColorMatrix in="SourceAlpha" type="matrix" values="0 0 0 0 0 0 0 0 0 0 0 0 0 0 0 0 0 0 127 0" result="hardAlpha"/>
<feOffset dy="2"/>
<feGaussianBlur stdDeviation="4"/>
<feComposite in2="hardAlpha" operator="arithmetic" k2="-1" k3="1"/>
<feColorMatrix type="matrix" values="0 0 0 0 0 0 0 0 0 0.82 0 0 0 0 1 0 0 0 0.25 0"/>
<feBlend mode="normal" in2="shape" result="effect2_innerShadow_415_771"/>
</filter>
<linearGradient id="paint0_linear_415_771" x1="45.7734" y1="60.9043" x2="73.1426" y2="0.421875" gradientUnits="userSpaceOnUse">
<stop stop-color="#0082DF"/>
<stop offset="0.299998" stop-color="#48B2FF" stop-opacity="0.75"/>
<stop offset="1" stop-color="#3BADFF" stop-opacity="0"/>
</linearGradient>
<linearGradient id="paint1_linear_415_771" x1="44.4418" y1="33.5352" x2="44.4418" y2="65.3367" gradientUnits="userSpaceOnUse">
<stop stop-color="#D7F0FF"/>
<stop offset="1" stop-color="#0072DC"/>
</linearGradient>
</defs>
</svg>
