<svg width="73" height="73" viewBox="0 0 73 73" fill="none" xmlns="http://www.w3.org/2000/svg">
<path fill-rule="evenodd" clip-rule="evenodd" d="M46.3783 17.885C46.3783 16.5043 47.4976 15.385 48.8783 15.385H51.6554C56.1037 15.385 59.7098 18.9911 59.7098 23.4394C59.7098 27.8876 56.1037 31.4937 51.6554 31.4937H33.8815C32.5008 31.4937 31.3815 30.3744 31.3815 28.9937C31.3815 27.613 32.5008 26.4937 33.8815 26.4937H51.6554C53.3423 26.4937 54.7098 25.1262 54.7098 23.4394C54.7098 21.7525 53.3423 20.385 51.6554 20.385H48.8783C47.4976 20.385 46.3783 19.2657 46.3783 17.885ZM48.8777 54.7024C48.8777 56.0831 49.997 57.2024 51.3777 57.2024H54.1549C58.6032 57.2024 62.2092 53.5963 62.2092 49.148C62.2092 44.6998 58.6032 41.0937 54.1549 41.0937H25.55C24.1693 41.0937 23.05 42.213 23.05 43.5937C23.05 44.9744 24.1693 46.0937 25.55 46.0937H54.1549C55.8418 46.0937 57.2092 47.4612 57.2092 49.148C57.2092 50.8349 55.8418 52.2024 54.1549 52.2024H51.3777C49.997 52.2024 48.8777 53.3217 48.8777 54.7024ZM18.8848 46.0937C20.2655 46.0937 21.3848 44.9744 21.3848 43.5937C21.3848 42.213 20.2655 41.0937 18.8848 41.0937H12.775C11.3943 41.0937 10.275 42.213 10.275 43.5937C10.275 44.9744 11.3943 46.0937 12.775 46.0937H18.8848ZM62.487 36.2937C62.487 37.6744 61.3677 38.7937 59.987 38.7937H50.5446C49.1639 38.7937 48.0446 37.6744 48.0446 36.2937C48.0446 34.913 49.1639 33.7937 50.5446 33.7937H59.987C61.3677 33.7937 62.487 34.913 62.487 36.2937ZM43.3239 38.7937C44.7046 38.7937 45.8239 37.6744 45.8239 36.2937C45.8239 34.913 44.7046 33.7937 43.3239 33.7937L12.775 33.7937C11.3943 33.7937 10.275 34.913 10.275 36.2937C10.275 37.6744 11.3943 38.7937 12.775 38.7937L43.3239 38.7937Z" fill="url(#paint0_linear_444_882)"/>
<defs>
<linearGradient id="paint0_linear_444_882" x1="70.5998" y1="0.675128" x2="36.0497" y2="56.9991" gradientUnits="userSpaceOnUse">
<stop stop-color="#D7F0FF"/>
<stop offset="1" stop-color="#0072DC"/>
</linearGradient>
</defs>
</svg>
