<svg width="89" height="86" viewBox="0 0 89 86" fill="none" xmlns="http://www.w3.org/2000/svg">
<g filter="url(#filter0_ddi_444_730)">
<circle cx="48.1091" cy="40.7091" r="24.4364" fill="url(#paint0_linear_444_730)"/>
</g>
<g filter="url(#filter1_bd_444_730)">
<path fill-rule="evenodd" clip-rule="evenodd" d="M18.3273 20.0909C18.3273 17.1387 20.7206 14.7455 23.6728 14.7455C26.625 14.7455 29.0182 17.1387 29.0182 20.0909V31.5001C29.0122 31.5001 29.0061 31.5 29 31.5H19V34.5H29C29.0061 34.5 29.0122 34.5 29.0182 34.4999V37.5001C29.0122 37.5001 29.0061 37.5 29 37.5H19V40.5H29C29.0061 40.5 29.0122 40.5 29.0182 40.4999V43.5001C29.0122 43.5001 29.0061 43.5 29 43.5H19V46.5H29C29.0061 46.5 29.0122 46.5 29.0182 46.4999V48.0465C33.0872 50.0293 35.891 54.2054 35.891 59.0364C35.891 65.7843 30.4207 71.2546 23.6728 71.2546C16.9249 71.2546 11.4546 65.7843 11.4546 59.0364C11.4546 54.2054 14.2583 50.0293 18.3273 48.0465V20.0909Z" fill="url(#paint1_linear_444_730)" fill-opacity="0.9" shape-rendering="crispEdges"/>
</g>
<defs>
<filter id="filter0_ddi_444_730" x="7.67273" y="0.272766" width="80.8727" height="80.8727" filterUnits="userSpaceOnUse" color-interpolation-filters="sRGB">
<feFlood flood-opacity="0" result="BackgroundImageFix"/>
<feColorMatrix in="SourceAlpha" type="matrix" values="0 0 0 0 0 0 0 0 0 0 0 0 0 0 0 0 0 0 127 0" result="hardAlpha"/>
<feOffset/>
<feGaussianBlur stdDeviation="8"/>
<feComposite in2="hardAlpha" operator="out"/>
<feColorMatrix type="matrix" values="0 0 0 0 0.992157 0 0 0 0 0.773882 0 0 0 0 0 0 0 0 1 0"/>
<feBlend mode="normal" in2="BackgroundImageFix" result="effect1_dropShadow_444_730"/>
<feColorMatrix in="SourceAlpha" type="matrix" values="0 0 0 0 0 0 0 0 0 0 0 0 0 0 0 0 0 0 127 0" result="hardAlpha"/>
<feOffset/>
<feGaussianBlur stdDeviation="5.5"/>
<feComposite in2="hardAlpha" operator="out"/>
<feColorMatrix type="matrix" values="0 0 0 0 0.992157 0 0 0 0 0.772549 0 0 0 0 0 0 0 0 0.45 0"/>
<feBlend mode="normal" in2="effect1_dropShadow_444_730" result="effect2_dropShadow_444_730"/>
<feBlend mode="normal" in="SourceGraphic" in2="effect2_dropShadow_444_730" result="shape"/>
<feColorMatrix in="SourceAlpha" type="matrix" values="0 0 0 0 0 0 0 0 0 0 0 0 0 0 0 0 0 0 127 0" result="hardAlpha"/>
<feOffset dx="-1" dy="3"/>
<feGaussianBlur stdDeviation="2.5"/>
<feComposite in2="hardAlpha" operator="arithmetic" k2="-1" k3="1"/>
<feColorMatrix type="matrix" values="0 0 0 0 1 0 0 0 0 0.9 0 0 0 0 0 0 0 0 0.35 0"/>
<feBlend mode="normal" in2="shape" result="effect3_innerShadow_444_730"/>
</filter>
<filter id="filter1_bd_444_730" x="0.45459" y="0.745483" width="52.4364" height="84.5091" filterUnits="userSpaceOnUse" color-interpolation-filters="sRGB">
<feFlood flood-opacity="0" result="BackgroundImageFix"/>
<feGaussianBlur in="BackgroundImageFix" stdDeviation="3.5"/>
<feComposite in2="SourceAlpha" operator="in" result="effect1_backgroundBlur_444_730"/>
<feColorMatrix in="SourceAlpha" type="matrix" values="0 0 0 0 0 0 0 0 0 0 0 0 0 0 0 0 0 0 127 0" result="hardAlpha"/>
<feOffset dx="3"/>
<feGaussianBlur stdDeviation="7"/>
<feComposite in2="hardAlpha" operator="out"/>
<feColorMatrix type="matrix" values="0 0 0 0 0 0 0 0 0 0 0 0 0 0 0 0 0 0 0.15 0"/>
<feBlend mode="normal" in2="effect1_backgroundBlur_444_730" result="effect2_dropShadow_444_730"/>
<feBlend mode="normal" in="SourceGraphic" in2="effect2_dropShadow_444_730" result="shape"/>
</filter>
<linearGradient id="paint0_linear_444_730" x1="48.1091" y1="16.2728" x2="48.1091" y2="65.1455" gradientUnits="userSpaceOnUse">
<stop stop-color="#FDC500"/>
<stop offset="1" stop-color="#FD8900"/>
</linearGradient>
<linearGradient id="paint1_linear_444_730" x1="19.4728" y1="71.2546" x2="32.4546" y2="17.4182" gradientUnits="userSpaceOnUse">
<stop stop-color="#E20000"/>
<stop offset="1" stop-color="#FF2222" stop-opacity="0.7"/>
</linearGradient>
</defs>
</svg>
