<svg width="88" height="75" viewBox="0 0 88 75" fill="none" xmlns="http://www.w3.org/2000/svg">
<g id="Group 18">
<g id="cloud">
<g id="shadow" filter="url(#filter0_f_415_723)">
<ellipse cx="43.9824" cy="46.0371" rx="21.2871" ry="6.41992" fill="#004E67" fill-opacity="0.7"/>
</g>
<g id="cloud_2" filter="url(#filter1_bi_415_723)">
<path fill-rule="evenodd" clip-rule="evenodd" d="M59.8633 20.6953C59.8633 21.228 59.8427 21.7558 59.8024 22.2782C62.0223 20.445 64.8689 19.3438 67.9727 19.3438C75.0639 19.3438 80.8125 25.0923 80.8125 32.1836C80.8125 39.0482 75.4256 44.6545 68.6484 45.006V45.0234H67.9727H20.668H19.3164V44.9532C12.8604 44.2778 7.82812 38.8184 7.82812 32.1836C7.82812 25.5351 12.8813 20.0668 19.3565 19.4099C20.0196 8.81209 28.8249 0.421875 39.5898 0.421875C50.7866 0.421875 59.8633 9.4986 59.8633 20.6953Z" fill="url(#paint0_linear_415_723)"/>
</g>
</g>
<path id="rain" fill-rule="evenodd" clip-rule="evenodd" d="M35.5352 27.3184C36.9159 27.3184 38.0352 28.4376 38.0352 29.8184L38.0352 39.9551C38.0352 41.3358 36.9159 42.4551 35.5352 42.4551C34.1544 42.4551 33.0352 41.3358 33.0352 39.9551L33.0352 29.8184C33.0352 28.4376 34.1544 27.3184 35.5352 27.3184ZM53.1055 30.6973C54.4862 30.6973 55.6055 31.8166 55.6055 33.1973V52.1191C55.6055 53.4999 54.4862 54.6191 53.1055 54.6191C51.7248 54.6191 50.6055 53.4999 50.6055 52.1191V33.1973C50.6055 31.8166 51.7248 30.6973 53.1055 30.6973ZM44.3203 35.4277C45.701 35.4277 46.8203 36.547 46.8203 37.9277V44.0098C46.8203 45.3905 45.701 46.5098 44.3203 46.5098C42.9396 46.5098 41.8203 45.3905 41.8203 44.0098V37.9277C41.8203 36.547 42.9396 35.4277 44.3203 35.4277ZM44.3203 48.9434C45.701 48.9434 46.8203 50.0626 46.8203 51.4434V63.6074C46.8203 64.9881 45.701 66.1074 44.3203 66.1074C42.9396 66.1074 41.8203 64.9881 41.8203 63.6074V51.4434C41.8203 50.0626 42.9396 48.9434 44.3203 48.9434ZM55.6055 58.877C55.6055 57.4962 54.4862 56.377 53.1055 56.377C51.7248 56.377 50.6055 57.4962 50.6055 58.877V63.6074C50.6055 64.9881 51.7248 66.1074 53.1055 66.1074C54.4862 66.1074 55.6055 64.9881 55.6055 63.6074V58.877ZM64.3906 41.3066C64.3906 39.9259 63.2713 38.8066 61.8906 38.8066C60.5099 38.8066 59.3906 39.9259 59.3906 41.3066V46.0371C59.3906 47.4178 60.5099 48.5371 61.8906 48.5371C63.2713 48.5371 64.3906 47.4178 64.3906 46.0371V41.3066ZM61.8906 50.9707C63.2713 50.9707 64.3906 52.09 64.3906 53.4707V63.6074C64.3906 64.9881 63.2713 66.1074 61.8906 66.1074C60.5099 66.1074 59.3906 64.9881 59.3906 63.6074V53.4707C59.3906 52.09 60.5099 50.9707 61.8906 50.9707ZM38.0352 46.7129C38.0352 45.3322 36.9159 44.2129 35.5352 44.2129C34.1544 44.2129 33.0352 45.3322 33.0352 46.7129V51.4434C33.0352 52.8241 34.1544 53.9434 35.5352 53.9434C36.9159 53.9434 38.0352 52.8241 38.0352 51.4434V46.7129ZM38.0352 58.877C38.0352 57.4962 36.9159 56.377 35.5352 56.377C34.1544 56.377 33.0352 57.4962 33.0352 58.877V63.6074C33.0352 64.9881 34.1544 66.1074 35.5352 66.1074C36.9159 66.1074 38.0352 64.9881 38.0352 63.6074V58.877ZM26.0742 34.0762C27.4549 34.0762 28.5742 35.1955 28.5742 36.5762L28.5742 41.9824C28.5742 43.3631 27.4549 44.4824 26.0742 44.4824C24.6935 44.4824 23.5742 43.3631 23.5742 41.9824L23.5742 36.5762C23.5742 35.1955 24.6935 34.0762 26.0742 34.0762ZM28.5742 50.0918C28.5742 48.7111 27.4549 47.5918 26.0742 47.5918C24.6935 47.5918 23.5742 48.7111 23.5742 50.0918L23.5742 63.6074C23.5742 64.9881 24.6935 66.1074 26.0742 66.1074C27.4549 66.1074 28.5742 64.9881 28.5742 63.6074L28.5742 50.0918Z" fill="url(#paint1_linear_415_723)"/>
<path id="Intersect" fill-rule="evenodd" clip-rule="evenodd" d="M37.3779 45.0234H33.6924C34.1494 44.5252 34.8058 44.2129 35.5352 44.2129C36.2645 44.2129 36.9209 44.5252 37.3779 45.0234ZM46.6063 45.0234H42.0344C41.8968 44.7136 41.8203 44.3706 41.8203 44.0098V37.9277C41.8203 36.547 42.9396 35.4277 44.3203 35.4277C45.701 35.4277 46.8203 36.547 46.8203 37.9277V44.0098C46.8203 44.3706 46.7439 44.7136 46.6063 45.0234ZM55.6055 45.0234H50.6055V33.1973C50.6055 31.8166 51.7248 30.6973 53.1055 30.6973C54.4862 30.6973 55.6055 31.8166 55.6055 33.1973V45.0234ZM64.3906 45.0234H59.3906V41.3066C59.3906 39.9259 60.5099 38.8066 61.8906 38.8066C63.2713 38.8066 64.3906 39.9259 64.3906 41.3066V45.0234ZM38.0352 29.8184C38.0352 28.4376 36.9159 27.3184 35.5352 27.3184C34.1544 27.3184 33.0352 28.4376 33.0352 29.8184L33.0352 39.9551C33.0352 41.3358 34.1544 42.4551 35.5352 42.4551C36.9159 42.4551 38.0352 41.3358 38.0352 39.9551L38.0352 29.8184ZM28.5742 36.5762C28.5742 35.1955 27.4549 34.0762 26.0742 34.0762C24.6935 34.0762 23.5742 35.1955 23.5742 36.5762L23.5742 41.9824C23.5742 43.3631 24.6935 44.4824 26.0742 44.4824C27.4549 44.4824 28.5742 43.3631 28.5742 41.9824L28.5742 36.5762Z" fill="#A9DDFA"/>
</g>
<defs>
<filter id="filter0_f_415_723" x="0.695312" y="17.6172" width="86.5742" height="56.8398" filterUnits="userSpaceOnUse" color-interpolation-filters="sRGB">
<feFlood flood-opacity="0" result="BackgroundImageFix"/>
<feBlend mode="normal" in="SourceGraphic" in2="BackgroundImageFix" result="shape"/>
<feGaussianBlur stdDeviation="11" result="effect1_foregroundBlur_415_723"/>
</filter>
<filter id="filter1_bi_415_723" x="0.828125" y="-6.57812" width="86.9844" height="58.6016" filterUnits="userSpaceOnUse" color-interpolation-filters="sRGB">
<feFlood flood-opacity="0" result="BackgroundImageFix"/>
<feGaussianBlur in="BackgroundImageFix" stdDeviation="3.5"/>
<feComposite in2="SourceAlpha" operator="in" result="effect1_backgroundBlur_415_723"/>
<feBlend mode="normal" in="SourceGraphic" in2="effect1_backgroundBlur_415_723" result="shape"/>
<feColorMatrix in="SourceAlpha" type="matrix" values="0 0 0 0 0 0 0 0 0 0 0 0 0 0 0 0 0 0 127 0" result="hardAlpha"/>
<feOffset dy="2"/>
<feGaussianBlur stdDeviation="4"/>
<feComposite in2="hardAlpha" operator="arithmetic" k2="-1" k3="1"/>
<feColorMatrix type="matrix" values="0 0 0 0 0 0 0 0 0 0.82 0 0 0 0 1 0 0 0 0.25 0"/>
<feBlend mode="normal" in2="shape" result="effect2_innerShadow_415_723"/>
</filter>
<linearGradient id="paint0_linear_415_723" x1="45.6719" y1="60.9043" x2="73.041" y2="0.421875" gradientUnits="userSpaceOnUse">
<stop stop-color="#0082DF"/>
<stop offset="0.299998" stop-color="#48B2FF" stop-opacity="0.75"/>
<stop offset="1" stop-color="#3BADFF" stop-opacity="0"/>
</linearGradient>
<linearGradient id="paint1_linear_415_723" x1="43.9824" y1="27.3184" x2="43.9824" y2="66.1074" gradientUnits="userSpaceOnUse">
<stop offset="0.168182" stop-color="#D7F0FF"/>
<stop offset="1" stop-color="#0072DC"/>
</linearGradient>
</defs>
</svg>
