<svg width="88" height="75" viewBox="0 0 88 75" fill="none" xmlns="http://www.w3.org/2000/svg">
<g filter="url(#filter0_f_445_715)">
<ellipse cx="44.1543" cy="45.6152" rx="21.2871" ry="6.41992" fill="#004E67" fill-opacity="0.7"/>
</g>
<g filter="url(#filter1_bi_445_715)">
<path fill-rule="evenodd" clip-rule="evenodd" d="M60.0352 20.2734C60.0352 20.8061 60.0146 21.334 59.9743 21.8563C62.1942 20.0232 65.0407 18.9219 68.1445 18.9219C75.2358 18.9219 80.9844 24.6705 80.9844 31.7617C80.9844 38.6263 75.5974 44.2327 68.8203 44.5841V44.6016H68.1445H20.8398H19.4883V44.5313C13.0323 43.8559 8 38.3965 8 31.7617C8 25.1132 13.0532 19.6449 19.5284 18.988C20.1914 8.39021 28.9968 0 39.7617 0C50.9584 0 60.0352 9.07673 60.0352 20.2734Z" fill="url(#paint0_linear_445_715)"/>
</g>
<path d="M54.4146 24.0872L48.9762 30.2575C48.3641 30.9085 47.9285 31.6932 47.7056 32.5467C47.4827 33.4003 47.4788 34.298 47.6942 35.1658C47.8719 35.8542 48.2422 36.4895 48.7654 37.0034C49.2886 37.5174 49.945 37.8907 50.6643 38.0835C51.3837 38.2762 52.1388 38.2811 52.8489 38.0976C53.559 37.9141 54.1972 37.5491 54.6953 37.0417C55.3134 36.3975 55.7596 35.6203 55.9983 34.7724C56.237 33.9245 56.2617 33.0293 56.0702 32.1584L54.4146 24.0872Z" fill="url(#paint1_linear_445_715)"/>
<path d="M36.8764 21.1971L32.7298 24.9895C32.2663 25.3868 31.9129 25.8879 31.6989 26.4513C31.4849 27.0147 31.4164 27.6242 31.4991 28.2295C31.5693 28.7101 31.7743 29.1687 32.0919 29.5562C32.4096 29.9437 32.8281 30.2454 33.3026 30.4291C33.7771 30.6127 34.2896 30.6714 34.7854 30.5989C35.2812 30.5263 35.7415 30.3252 36.117 30.0171C36.5841 29.6248 36.9442 29.1296 37.1685 28.5712C37.3929 28.0127 37.4752 27.4065 37.409 26.8009L36.8764 21.1971Z" fill="url(#paint2_linear_445_715)"/>
<path d="M40.3076 37.1043L33.8927 44.5463C33.1831 45.3519 32.6767 46.3095 32.4129 47.3442C32.1491 48.3788 32.1352 49.4623 32.3722 50.51C32.5679 51.3364 32.9908 52.0981 33.5953 52.7124C34.1997 53.3267 34.9626 53.7702 35.8012 53.9949C36.6398 54.2197 37.5223 54.217 38.3529 53.9872C39.1835 53.7574 39.9306 53.3093 40.5133 52.6914C41.2424 51.9026 41.7721 50.9573 42.061 49.9294C42.3498 48.9015 42.39 47.8189 42.1784 46.7664L40.3076 37.1043Z" fill="url(#paint3_linear_445_715)"/>
<path fill-rule="evenodd" clip-rule="evenodd" d="M41.7591 44.6016H33.8443C33.8603 44.5831 33.8763 44.5646 33.8925 44.5463L40.3075 37.1043L41.7591 44.6016ZM32.7298 24.9896L36.8763 21.1972L37.409 26.801C37.4752 27.4066 37.3928 28.0128 37.1685 28.5713C36.9441 29.1297 36.584 29.6249 36.117 30.0172C35.7415 30.3253 35.2811 30.5264 34.7854 30.599C34.2896 30.6715 33.777 30.6128 33.3025 30.4292C32.8281 30.2455 32.4096 29.9438 32.0919 29.5563C31.7742 29.1688 31.5693 28.7102 31.4991 28.2295C31.4164 27.6243 31.4849 27.0148 31.6989 26.4514C31.9129 25.888 32.2663 25.3869 32.7298 24.9896ZM48.9762 30.2576L54.4146 24.0872L56.0702 32.1585C56.2616 33.0293 56.237 33.9245 55.9983 34.7725C55.7595 35.6204 55.3133 36.3976 54.6953 37.0418C54.1972 37.5492 53.5589 37.9142 52.8488 38.0977C52.1388 38.2812 51.3836 38.2763 50.6643 38.0836C49.9449 37.8908 49.2885 37.5175 48.7653 37.0035C48.2421 36.4895 47.8719 35.8543 47.6942 35.1659C47.4787 34.2981 47.4827 33.4003 47.7056 32.5468C47.9285 31.6933 48.364 30.9086 48.9762 30.2576Z" fill="#A9DDFA"/>
<path d="M57.2899 41.8001C57.2899 40.614 56.3284 39.6525 55.1423 39.6525C53.9562 39.6525 52.9947 40.614 52.9947 41.8001V42.1043L52.7796 41.8892C51.9409 41.0505 50.5812 41.0505 49.7425 41.8892C48.9038 42.7279 48.9038 44.0876 49.7425 44.9263L49.9576 45.1414H49.6534C48.4674 45.1414 47.5059 46.1029 47.5059 47.289C47.5059 48.4751 48.4674 49.4366 49.6534 49.4366H49.9575L49.7424 49.6517C48.9037 50.4904 48.9037 51.8502 49.7424 52.6888C50.5811 53.5275 51.9409 53.5275 52.7795 52.6888L52.9947 52.4736V52.778C52.9947 53.964 53.9562 54.9255 55.1423 54.9255C56.3284 54.9255 57.2899 53.964 57.2899 52.778V52.4737L57.505 52.6888C58.3437 53.5275 59.7035 53.5275 60.5421 52.6888C61.3808 51.8502 61.3808 50.4904 60.5421 49.6517L60.327 49.4366H60.6313C61.8174 49.4366 62.7789 48.4751 62.7789 47.289C62.7789 46.103 61.8174 45.1414 60.6313 45.1414H60.3269L60.5421 44.9263C61.3808 44.0876 61.3808 42.7279 60.5421 41.8892C59.7034 41.0505 58.3436 41.0505 57.505 41.8892L57.2899 42.1043V41.8001Z" fill="url(#paint4_linear_445_715)"/>
<defs>
<filter id="filter0_f_445_715" x="0.867188" y="17.1953" width="86.5742" height="56.8398" filterUnits="userSpaceOnUse" color-interpolation-filters="sRGB">
<feFlood flood-opacity="0" result="BackgroundImageFix"/>
<feBlend mode="normal" in="SourceGraphic" in2="BackgroundImageFix" result="shape"/>
<feGaussianBlur stdDeviation="11" result="effect1_foregroundBlur_445_715"/>
</filter>
<filter id="filter1_bi_445_715" x="1" y="-7" width="86.9844" height="58.6016" filterUnits="userSpaceOnUse" color-interpolation-filters="sRGB">
<feFlood flood-opacity="0" result="BackgroundImageFix"/>
<feGaussianBlur in="BackgroundImageFix" stdDeviation="3.5"/>
<feComposite in2="SourceAlpha" operator="in" result="effect1_backgroundBlur_445_715"/>
<feBlend mode="normal" in="SourceGraphic" in2="effect1_backgroundBlur_445_715" result="shape"/>
<feColorMatrix in="SourceAlpha" type="matrix" values="0 0 0 0 0 0 0 0 0 0 0 0 0 0 0 0 0 0 127 0" result="hardAlpha"/>
<feOffset dy="2"/>
<feGaussianBlur stdDeviation="4"/>
<feComposite in2="hardAlpha" operator="arithmetic" k2="-1" k3="1"/>
<feColorMatrix type="matrix" values="0 0 0 0 0 0 0 0 0 0.82 0 0 0 0 1 0 0 0 0.25 0"/>
<feBlend mode="normal" in2="shape" result="effect2_innerShadow_445_715"/>
</filter>
<linearGradient id="paint0_linear_445_715" x1="45.8438" y1="60.4824" x2="73.2129" y2="1.3222e-07" gradientUnits="userSpaceOnUse">
<stop stop-color="#0082DF"/>
<stop offset="0.299998" stop-color="#48B2FF" stop-opacity="0.75"/>
<stop offset="1" stop-color="#3BADFF" stop-opacity="0"/>
</linearGradient>
<linearGradient id="paint1_linear_445_715" x1="54.4169" y1="24.0878" x2="49.9553" y2="40.7385" gradientUnits="userSpaceOnUse">
<stop stop-color="#E4F5FF"/>
<stop offset="0.146777" stop-color="#D7F0FF"/>
<stop offset="1" stop-color="#0072DC"/>
</linearGradient>
<linearGradient id="paint2_linear_445_715" x1="36.8779" y1="21.1977" x2="32.6263" y2="32.1805" gradientUnits="userSpaceOnUse">
<stop stop-color="#E4F5FF"/>
<stop offset="0.146777" stop-color="#D7F0FF"/>
<stop offset="1" stop-color="#0072DC"/>
</linearGradient>
<linearGradient id="paint3_linear_445_715" x1="40.3257" y1="37.1091" x2="35.1771" y2="56.324" gradientUnits="userSpaceOnUse">
<stop stop-color="#E4F5FF"/>
<stop offset="0.0777368" stop-color="#D7F0FF"/>
<stop offset="1" stop-color="#0072DC"/>
</linearGradient>
<linearGradient id="paint4_linear_445_715" x1="37.251" y1="46.2382" x2="73.3167" y2="25.1204" gradientUnits="userSpaceOnUse">
<stop stop-color="#0056D6"/>
<stop offset="1" stop-color="#ADD8FF"/>
</linearGradient>
</defs>
</svg>
