<svg width="87" height="75" viewBox="0 0 87 75" fill="none" xmlns="http://www.w3.org/2000/svg">
<g id="Group 15">
<g id="shadow" filter="url(#filter0_f_415_967)">
<ellipse cx="43.6465" cy="46.0371" rx="21.2871" ry="6.41992" fill="#004E67" fill-opacity="0.7"/>
</g>
<path id="lightning" d="M41.2666 51.0829L49.9631 35.1182C50.0408 34.9755 50.1903 34.8867 50.3528 34.8867H61.5118C61.8419 34.8867 62.0565 35.2342 61.9087 35.5293L57.5181 44.2964C57.3703 44.5915 57.5849 44.939 57.9149 44.939H62.2305L37.7534 66.3564C37.3803 66.6829 36.834 66.2447 37.0717 65.8096L44.4001 52.3956C44.5617 52.0999 44.3477 51.739 44.0107 51.739H41.6564C41.3196 51.739 41.1055 51.3786 41.2666 51.0829Z" fill="url(#paint0_linear_415_967)"/>
<g id="cloud" filter="url(#filter1_bi_415_967)">
<path fill-rule="evenodd" clip-rule="evenodd" d="M59.5273 20.6953C59.5273 21.228 59.5068 21.7558 59.4665 22.2782C61.6864 20.445 64.5329 19.3438 67.6367 19.3438C74.728 19.3438 80.4766 25.0923 80.4766 32.1836C80.4766 39.0482 75.0896 44.6545 68.3125 45.006V45.0234H67.6367H20.332H18.9805V44.9532C12.5245 44.2778 7.49219 38.8184 7.49219 32.1836C7.49219 25.5351 12.5454 20.0668 19.0206 19.4099C19.6836 8.81209 28.4889 0.421875 39.2539 0.421875C50.4506 0.421875 59.5273 9.4986 59.5273 20.6953Z" fill="url(#paint1_linear_415_967)"/>
</g>
<g id="rain">
<path id="Vector" d="M16.1268 52.427C15.7974 52.438 15.4721 52.3486 15.1918 52.1701C14.9899 52.0547 14.8128 51.8987 14.671 51.7114C14.5293 51.5241 14.4258 51.3094 14.3668 51.0801C14.3078 50.8509 14.2946 50.6119 14.3278 50.3774C14.3611 50.1429 14.4402 49.9179 14.5604 49.7157L27.4493 27.057C27.5615 26.85 27.7133 26.6685 27.8956 26.5233C28.0779 26.3781 28.2869 26.2723 28.5102 26.2121C28.7335 26.152 28.9664 26.1387 29.195 26.1733C29.4235 26.2078 29.643 26.2893 29.8402 26.4129C30.2385 26.6553 30.528 27.0487 30.6462 27.5081C30.7643 27.9674 30.7016 28.4557 30.4716 28.8674L17.5826 51.5261C17.4375 51.7934 17.2269 52.0171 16.9716 52.1751C16.7163 52.3331 16.4251 52.4199 16.1268 52.427Z" fill="url(#paint2_linear_415_967)"/>
<path id="Vector_2" d="M34.8502 51.229C34.5208 51.24 34.1955 51.1507 33.9152 50.9722C33.7133 50.8568 33.5362 50.7007 33.3944 50.5134C33.2527 50.3261 33.1492 50.1114 33.0902 49.8822C33.0313 49.6529 33.018 49.4139 33.0513 49.1795C33.0845 48.945 33.1636 48.7199 33.2838 48.5177L42.3877 32.4448C42.6232 32.0365 43.0062 31.74 43.4536 31.6194C43.901 31.4989 44.377 31.564 44.7785 31.8008C45.1768 32.0432 45.4664 32.4366 45.5845 32.8959C45.7027 33.3552 45.64 33.8436 45.4099 34.2552L36.3061 50.3281C36.1575 50.5924 35.9461 50.8136 35.6915 50.9712C35.4369 51.1287 35.1475 51.2174 34.8502 51.229Z" fill="url(#paint3_linear_415_967)"/>
<path id="Vector_3" d="M22.0104 57.9868C21.681 57.9979 21.3556 57.9085 21.0754 57.73C20.8735 57.6146 20.6964 57.4586 20.5546 57.2712C20.4128 57.0839 20.3094 56.8692 20.2504 56.64C20.1914 56.4108 20.1782 56.1717 20.2114 55.9373C20.2447 55.7028 20.3238 55.4777 20.444 55.2756L29.5478 39.2026C29.7834 38.7943 30.1663 38.4978 30.6138 38.3772C31.0612 38.2567 31.5371 38.3219 31.9387 38.5586C32.337 38.801 32.6265 39.1944 32.7447 39.6537C32.8629 40.113 32.8001 40.6014 32.5701 41.013L23.4662 57.086C23.3177 57.3502 23.1063 57.5714 22.8517 57.729C22.5971 57.8865 22.3076 57.9752 22.0104 57.9868Z" fill="url(#paint4_linear_415_967)"/>
</g>
<path id="Intersect" fill-rule="evenodd" clip-rule="evenodd" d="M21.2815 45.0234H20.332H18.9804V44.9531C18.4494 44.8976 17.9281 44.8097 17.4183 44.6914L27.4493 27.057C27.5615 26.85 27.7133 26.6685 27.8956 26.5233C28.0779 26.3781 28.287 26.2722 28.5102 26.2121C28.7335 26.1519 28.9665 26.1387 29.195 26.1732C29.4235 26.2077 29.643 26.2893 29.8402 26.4129C30.2385 26.6553 30.528 27.0487 30.6462 27.508C30.7644 27.9674 30.7017 28.4557 30.4716 28.8674L21.2815 45.0234ZM30.2986 45.0234H26.2509L29.5478 39.2026C29.7834 38.7943 30.1664 38.4978 30.6138 38.3772C31.0612 38.2567 31.5371 38.3219 31.9387 38.5586C32.337 38.801 32.6265 39.1944 32.7447 39.6537C32.8629 40.113 32.8001 40.6014 32.5701 41.013L30.2986 45.0234ZM39.3107 45.0234H35.263L42.3877 32.4448C42.6233 32.0365 43.0062 31.74 43.4536 31.6194C43.901 31.4989 44.377 31.564 44.7785 31.8008C45.1768 32.0432 45.4664 32.4366 45.5846 32.8959C45.7027 33.3552 45.64 33.8436 45.4099 34.2552L39.3107 45.0234Z" fill="#A9DDFA"/>
</g>
<defs>
<filter id="filter0_f_415_967" x="0.359375" y="17.6172" width="86.5742" height="56.8398" filterUnits="userSpaceOnUse" color-interpolation-filters="sRGB">
<feFlood flood-opacity="0" result="BackgroundImageFix"/>
<feBlend mode="normal" in="SourceGraphic" in2="BackgroundImageFix" result="shape"/>
<feGaussianBlur stdDeviation="11" result="effect1_foregroundBlur_415_967"/>
</filter>
<filter id="filter1_bi_415_967" x="0.492188" y="-6.57812" width="86.9844" height="58.6016" filterUnits="userSpaceOnUse" color-interpolation-filters="sRGB">
<feFlood flood-opacity="0" result="BackgroundImageFix"/>
<feGaussianBlur in="BackgroundImageFix" stdDeviation="3.5"/>
<feComposite in2="SourceAlpha" operator="in" result="effect1_backgroundBlur_415_967"/>
<feBlend mode="normal" in="SourceGraphic" in2="effect1_backgroundBlur_415_967" result="shape"/>
<feColorMatrix in="SourceAlpha" type="matrix" values="0 0 0 0 0 0 0 0 0 0 0 0 0 0 0 0 0 0 127 0" result="hardAlpha"/>
<feOffset dy="2"/>
<feGaussianBlur stdDeviation="4"/>
<feComposite in2="hardAlpha" operator="arithmetic" k2="-1" k3="1"/>
<feColorMatrix type="matrix" values="0 0 0 0 0 0 0 0 0 0.82 0 0 0 0 1 0 0 0 0.25 0"/>
<feBlend mode="normal" in2="shape" result="effect2_innerShadow_415_967"/>
</filter>
<linearGradient id="paint0_linear_415_967" x1="49.0527" y1="34.8867" x2="49.0527" y2="68" gradientUnits="userSpaceOnUse">
<stop stop-color="#F8FD00"/>
<stop offset="1" stop-color="#FD9800"/>
</linearGradient>
<linearGradient id="paint1_linear_415_967" x1="48.0391" y1="65.9727" x2="17.9668" y2="14.9512" gradientUnits="userSpaceOnUse">
<stop stop-color="#FFEC45" stop-opacity="0.5"/>
<stop offset="0.419808" stop-color="#48B2FF" stop-opacity="0.65"/>
<stop offset="1" stop-color="#0082DF"/>
</linearGradient>
<linearGradient id="paint2_linear_415_967" x1="27.4611" y1="17.4376" x2="8.57778" y2="45.7688" gradientUnits="userSpaceOnUse">
<stop stop-color="#D7F0FF"/>
<stop offset="1" stop-color="#0072DC"/>
</linearGradient>
<linearGradient id="paint3_linear_415_967" x1="43.1481" y1="25.0175" x2="29.1231" y2="46.5611" gradientUnits="userSpaceOnUse">
<stop stop-color="#D7F0FF"/>
<stop offset="1" stop-color="#0072DC"/>
</linearGradient>
<linearGradient id="paint4_linear_415_967" x1="30.3083" y1="31.7753" x2="16.2832" y2="53.319" gradientUnits="userSpaceOnUse">
<stop stop-color="#D7F0FF"/>
<stop offset="1" stop-color="#0072DC"/>
</linearGradient>
</defs>
</svg>
