<svg width="63" height="62" viewBox="0 0 63 62" fill="none" xmlns="http://www.w3.org/2000/svg">
<path fill-rule="evenodd" clip-rule="evenodd" d="M18.0397 9.29999L13.3621 18.9165C12.3621 21.0221 12.2976 23.5362 13.4589 25.5789C14.2654 27.056 15.6525 28.2816 18.0397 28.2816C20.4269 28.2816 21.7818 27.056 22.5882 25.5789C23.7496 23.5362 23.685 21.0221 22.685 18.9165L18.0397 9.29999ZM32.6854 26.0189L30.1692 31.1728C29.8926 31.7336 29.7543 32.3496 29.7655 32.9716C29.7767 33.5936 29.937 34.2045 30.2337 34.7555C30.4533 35.2029 30.8024 35.5781 31.2379 35.8349C31.6735 36.0917 32.1766 36.219 32.6854 36.2011C33.1926 36.2112 33.6924 36.0807 34.1265 35.8247C34.5605 35.5688 34.911 35.198 35.1371 34.7555C35.4287 34.202 35.5834 33.5899 35.589 32.9679C35.5946 32.3458 35.4509 31.7311 35.1693 31.1728L32.6854 26.0189ZM41.5888 17.5023L45.5566 9.29999L49.5245 17.5023C49.9686 18.39 50.1941 19.3664 50.1829 20.3538C50.1717 21.3413 49.9241 22.3126 49.46 23.1905C49.0837 23.8809 48.5216 24.4584 47.8339 24.8612C47.1463 25.264 46.359 25.4768 45.5566 25.4768C44.7543 25.4768 43.967 25.264 43.2794 24.8612C42.5917 24.4584 42.0296 23.8809 41.6533 23.1905C41.1891 22.3126 40.9416 21.3413 40.9304 20.3538C40.9192 19.3664 41.1446 18.39 41.5888 17.5023ZM23.4592 39.5323L21.1688 44.3091C20.9025 44.8158 20.7663 45.3779 20.7719 45.9472C20.7775 46.5164 20.9248 47.0759 21.2011 47.5775C21.4017 47.9923 21.7223 48.3411 22.1233 48.5811C22.5244 48.8212 22.9887 48.942 23.4592 48.9288C23.9282 48.9342 24.3891 48.8102 24.7887 48.571C25.1884 48.3319 25.5103 47.9874 25.7174 47.5775C25.9859 47.0735 26.1288 46.5149 26.1344 45.9471C26.14 45.3792 26.0082 44.8181 25.7496 44.3091L23.4592 39.5323ZM41.3952 44.3405L45.5566 35.7611L49.718 44.3405C50.1776 45.2741 50.4108 46.2981 50.3996 47.3334C50.3884 48.3687 50.1331 49.3876 49.6535 50.3116C48.9115 51.6001 47.6857 52.7 45.5566 52.7C43.4275 52.7 42.2017 51.6001 41.4597 50.3116C40.9801 49.3876 40.7248 48.3687 40.7136 47.3334C40.7024 46.2981 40.9356 45.2741 41.3952 44.3405Z" fill="url(#paint0_linear_444_778)"/>
<defs>
<linearGradient id="paint0_linear_444_778" x1="34.65" y1="-7.13001" x2="31.5989" y2="52.705" gradientUnits="userSpaceOnUse">
<stop stop-color="#D7F0FF"/>
<stop offset="1" stop-color="#0072DC"/>
</linearGradient>
</defs>
</svg>
