<svg width="95" height="75" viewBox="0 0 95 75" fill="none" xmlns="http://www.w3.org/2000/svg">
<g id="Group 14">
<g id="shadow" filter="url(#filter0_f_415_942)">
<ellipse cx="43.6895" cy="46.0371" rx="21.2871" ry="6.41992" fill="#004E67" fill-opacity="0.7"/>
</g>
<g id="cloud" filter="url(#filter1_bi_415_942)">
<path fill-rule="evenodd" clip-rule="evenodd" d="M59.5703 20.6953C59.5703 21.228 59.5498 21.7558 59.5094 22.2782C61.7293 20.445 64.5759 19.3438 67.6797 19.3438C74.7709 19.3438 80.5195 25.0923 80.5195 32.1836C80.5195 39.0482 75.1326 44.6545 68.3555 45.006V45.0234H67.6797H20.375H19.0234V44.9532C12.5675 44.2778 7.53516 38.8184 7.53516 32.1836C7.53516 25.5351 12.5883 20.0668 19.0635 19.4099C19.7266 8.81209 28.5319 0.421875 39.2969 0.421875C50.4936 0.421875 59.5703 9.4986 59.5703 20.6953Z" fill="url(#paint0_linear_415_942)"/>
</g>
<path id="wind" fill-rule="evenodd" clip-rule="evenodd" d="M73.8315 32.7994H34.5755C34.3365 32.8386 34.0918 32.8253 33.8584 32.7605C33.625 32.6957 33.4085 32.5809 33.2239 32.4241C33.0393 32.2673 32.891 32.0722 32.7893 31.8523C32.6876 31.6325 32.6349 31.3932 32.6349 31.1509C32.6349 30.9087 32.6876 30.6694 32.7893 30.4496C32.891 30.2297 33.0393 30.0346 33.2239 29.8778C33.4085 29.721 33.625 29.6062 33.8584 29.5414C34.0918 29.4766 34.3365 29.4633 34.5755 29.5025H73.8315C74.0706 29.4633 74.3153 29.4766 74.5487 29.5414C74.7821 29.6062 74.9986 29.721 75.1832 29.8778C75.3678 30.0346 75.516 30.2297 75.6177 30.4496C75.7194 30.6694 75.7721 30.9087 75.7721 31.1509C75.7721 31.3932 75.7194 31.6325 75.6177 31.8523C75.516 32.0722 75.3678 32.2673 75.1832 32.4241C74.9986 32.5809 74.7821 32.6957 74.5487 32.7605C74.3153 32.8253 74.0706 32.8386 73.8315 32.7994ZM92.2996 32.7994H83.9473C83.5563 32.7354 83.2008 32.5344 82.9442 32.2324C82.6877 31.9305 82.5469 31.5472 82.5469 31.1509C82.5469 30.7547 82.6877 30.3714 82.9442 30.0694C83.2008 29.7675 83.5563 29.5665 83.9473 29.5025H92.2996C92.5387 29.4633 92.7833 29.4766 93.0167 29.5414C93.2501 29.6062 93.4666 29.721 93.6512 29.8778C93.8358 30.0346 93.9841 30.2297 94.0858 30.4496C94.1875 30.6694 94.2402 30.9087 94.2402 31.1509C94.2402 31.3932 94.1875 31.6325 94.0858 31.8523C93.9841 32.0722 93.8358 32.2673 93.6512 32.4241C93.4666 32.5809 93.2501 32.6957 93.0167 32.7605C92.7833 32.8253 92.5387 32.8386 92.2996 32.7994ZM27.7177 50.8445H89.1734C89.6165 50.8445 90.0414 50.6685 90.3546 50.3552C90.6679 50.042 90.8439 49.6171 90.8439 49.174C90.8439 48.731 90.6679 48.3061 90.3546 47.9928C90.0414 47.6795 89.6165 47.5036 89.1734 47.5036H27.7177C27.2746 47.5036 26.8497 47.6795 26.5365 47.9928C26.2232 48.3061 26.0472 48.731 26.0472 49.174C26.0472 49.6171 26.2232 50.042 26.5365 50.3552C26.8497 50.6685 27.2746 50.8445 27.7177 50.8445ZM62.7097 40.4484H16.5959C16.3806 40.4545 16.1664 40.4166 15.9664 40.337C15.7663 40.2574 15.5845 40.1378 15.4323 39.9855C15.28 39.8333 15.1604 39.6515 15.0808 39.4514C15.0012 39.2514 14.9633 39.0371 14.9694 38.8219C14.9635 38.6046 15.0012 38.3884 15.0804 38.1859C15.1595 37.9835 15.2783 37.799 15.43 37.6432C15.5816 37.4875 15.7629 37.3638 15.9631 37.2793C16.1634 37.1948 16.3785 37.1514 16.5959 37.1514H62.7097C63.1451 37.1629 63.5587 37.3439 63.8626 37.656C64.1664 37.968 64.3363 38.3864 64.3362 38.8219C64.3362 39.2533 64.1648 39.667 63.8598 39.972C63.5548 40.277 63.1411 40.4484 62.7097 40.4484ZM72.117 40.4484H85.6126C85.8279 40.4545 86.0421 40.4166 86.2422 40.337C86.4423 40.2574 86.624 40.1378 86.7762 39.9855C86.9285 39.8333 87.0481 39.6515 87.1277 39.4514C87.2073 39.2514 87.2452 39.0371 87.2391 38.8219C87.245 38.6046 87.2073 38.3884 87.1282 38.1859C87.0491 37.9835 86.9302 37.799 86.7786 37.6432C86.627 37.4875 86.4457 37.3638 86.2454 37.2793C86.0451 37.1948 85.83 37.1514 85.6126 37.1514H72.117C71.6739 37.1514 71.249 37.3274 70.9358 37.6407C70.6225 37.9539 70.4465 38.3788 70.4465 38.8219C70.4464 39.0392 70.4899 39.2544 70.5744 39.4547C70.6588 39.6549 70.7826 39.8362 70.9383 39.9878C71.0941 40.1395 71.2786 40.2583 71.481 40.3374C71.6835 40.4166 71.8997 40.4543 72.117 40.4484Z" fill="url(#paint1_linear_415_942)"/>
<path id="Intersect" fill-rule="evenodd" clip-rule="evenodd" d="M79.5232 37.1514C79.0179 38.3546 78.3346 39.4646 77.5063 40.4484H72.1168C71.8996 40.4543 71.6833 40.4166 71.4809 40.3374C71.2785 40.2583 71.0939 40.1395 70.9382 39.9878C70.7825 39.8362 70.6587 39.6549 70.5743 39.4547C70.4898 39.2544 70.4463 39.0392 70.4464 38.8219C70.4464 38.3788 70.6224 37.9539 70.9356 37.6407C71.2489 37.3274 71.6738 37.1514 72.1168 37.1514H79.5232ZM34.5754 32.7994H73.8314C74.0704 32.8386 74.3152 32.8253 74.5485 32.7605C74.7819 32.6957 74.9984 32.5809 75.183 32.4241C75.3676 32.2673 75.5159 32.0722 75.6176 31.8523C75.7193 31.6325 75.772 31.3932 75.772 31.1509C75.772 30.9087 75.7193 30.6694 75.6176 30.4496C75.5159 30.2297 75.3676 30.0346 75.183 29.8778C74.9984 29.721 74.7819 29.6062 74.5485 29.5414C74.3152 29.4766 74.0704 29.4633 73.8314 29.5025H34.5754C34.3363 29.4633 34.0916 29.4766 33.8583 29.5414C33.6249 29.6062 33.4084 29.721 33.2238 29.8778C33.0392 30.0346 32.8909 30.2297 32.7892 30.4496C32.6875 30.6694 32.6348 30.9087 32.6348 31.1509C32.6348 31.3932 32.6875 31.6325 32.7892 31.8523C32.8909 32.0722 33.0392 32.2673 33.2238 32.4241C33.4084 32.5809 33.6249 32.6957 33.8583 32.7605C34.0916 32.8253 34.3363 32.8386 34.5754 32.7994ZM16.5958 40.4484H62.7096C63.141 40.4484 63.5547 40.277 63.8597 39.972C64.1647 39.667 64.3361 39.2533 64.3361 38.8219C64.3362 38.3864 64.1663 37.968 63.8625 37.656C63.5586 37.3439 63.145 37.1629 62.7096 37.1514H16.5958C16.3784 37.1514 16.1633 37.1948 15.963 37.2793C15.7628 37.3638 15.5815 37.4875 15.4298 37.6432C15.2782 37.799 15.1593 37.9835 15.0802 38.1859C15.0011 38.3884 14.9634 38.6046 14.9693 38.8219C14.9632 39.0371 15.0011 39.2514 15.0807 39.4514C15.1603 39.6515 15.2799 39.8333 15.4321 39.9855C15.5844 40.1378 15.7662 40.2574 15.9662 40.337C16.1663 40.4166 16.3805 40.4545 16.5958 40.4484Z" fill="#A9DDFA"/>
</g>
<defs>
<filter id="filter0_f_415_942" x="0.402344" y="17.6172" width="86.5742" height="56.8398" filterUnits="userSpaceOnUse" color-interpolation-filters="sRGB">
<feFlood flood-opacity="0" result="BackgroundImageFix"/>
<feBlend mode="normal" in="SourceGraphic" in2="BackgroundImageFix" result="shape"/>
<feGaussianBlur stdDeviation="11" result="effect1_foregroundBlur_415_942"/>
</filter>
<filter id="filter1_bi_415_942" x="0.535156" y="-6.57812" width="86.9844" height="58.6016" filterUnits="userSpaceOnUse" color-interpolation-filters="sRGB">
<feFlood flood-opacity="0" result="BackgroundImageFix"/>
<feGaussianBlur in="BackgroundImageFix" stdDeviation="3.5"/>
<feComposite in2="SourceAlpha" operator="in" result="effect1_backgroundBlur_415_942"/>
<feBlend mode="normal" in="SourceGraphic" in2="effect1_backgroundBlur_415_942" result="shape"/>
<feColorMatrix in="SourceAlpha" type="matrix" values="0 0 0 0 0 0 0 0 0 0 0 0 0 0 0 0 0 0 127 0" result="hardAlpha"/>
<feOffset dy="2"/>
<feGaussianBlur stdDeviation="4"/>
<feComposite in2="hardAlpha" operator="arithmetic" k2="-1" k3="1"/>
<feColorMatrix type="matrix" values="0 0 0 0 0 0 0 0 0 0.82 0 0 0 0 1 0 0 0 0.25 0"/>
<feBlend mode="normal" in2="shape" result="effect2_innerShadow_415_942"/>
</filter>
<linearGradient id="paint0_linear_415_942" x1="45.3789" y1="60.9043" x2="72.748" y2="0.421875" gradientUnits="userSpaceOnUse">
<stop stop-color="#0082DF"/>
<stop offset="0.299998" stop-color="#48B2FF" stop-opacity="0.75"/>
<stop offset="1" stop-color="#3BADFF" stop-opacity="0"/>
</linearGradient>
<linearGradient id="paint1_linear_415_942" x1="54.6045" y1="-25.5957" x2="54.6045" y2="52.7949" gradientUnits="userSpaceOnUse">
<stop stop-color="#D7F0FF"/>
<stop offset="1" stop-color="#0072DC"/>
</linearGradient>
</defs>
</svg>
