<svg width="62" height="62" viewBox="0 0 62 62" fill="none" xmlns="http://www.w3.org/2000/svg">
<path fill-rule="evenodd" clip-rule="evenodd" d="M36.3151 40.3915C36.3152 39.2054 35.3537 38.2439 34.1676 38.2439C32.9815 38.2439 32.02 39.2054 32.02 40.3915V40.6957L31.8049 40.4806C30.9662 39.6419 29.6064 39.6419 28.7677 40.4806C27.9291 41.3193 27.9291 42.679 28.7677 43.5177L28.9829 43.7329H28.6787C27.4926 43.7329 26.5311 44.6944 26.5311 45.8804C26.5311 47.0665 27.4926 48.028 28.6787 48.028H28.9828L28.7677 48.2431C27.929 49.0818 27.929 50.4416 28.7677 51.2803C29.6064 52.1189 30.9661 52.1189 31.8048 51.2803L32.02 51.0651V51.3694C32.02 52.5554 32.9815 53.5169 34.1676 53.5169C35.3536 53.5169 36.3151 52.5554 36.3151 51.3694V51.0651L36.5303 51.2803C37.369 52.1189 38.7287 52.1189 39.5674 51.2803C40.4061 50.4416 40.4061 49.0818 39.5674 48.2431L39.3523 48.028H39.6566C40.8427 48.028 41.8042 47.0665 41.8042 45.8804C41.8042 44.6944 40.8427 43.7329 39.6566 43.7329H39.3522L39.5674 43.5177C40.406 42.679 40.406 41.3193 39.5674 40.4806C38.7287 39.6419 37.3689 39.6419 36.5302 40.4806L36.3151 40.6957V40.3915Z" fill="url(#paint0_linear_444_779)"/>
<path fill-rule="evenodd" clip-rule="evenodd" d="M42.9893 10.5551C42.9893 8.88477 41.6352 7.5307 39.9649 7.5307C38.2946 7.5307 36.9405 8.88477 36.9405 10.5551V10.6791L36.8528 10.5914C35.6717 9.4103 33.7568 9.41031 32.5757 10.5914C31.3946 11.7725 31.3946 13.6874 32.5757 14.8685L32.6633 14.9562H32.5394C30.8691 14.9562 29.515 16.3103 29.515 17.9806C29.515 19.6509 30.8691 21.005 32.5394 21.005H32.6633L32.5757 21.0926C31.3946 22.2737 31.3946 24.1887 32.5757 25.3698C33.7568 26.5509 35.6717 26.5509 36.8528 25.3698L36.9405 25.2821V25.4061C36.9405 27.0764 38.2946 28.4305 39.9649 28.4305C41.6352 28.4305 42.9893 27.0764 42.9893 25.4061V25.2822L43.0769 25.3698C44.258 26.5509 46.1729 26.5509 47.354 25.3698C48.5351 24.1887 48.5351 22.2737 47.354 21.0926L47.2664 21.005H47.3904C49.0607 21.005 50.4148 19.6509 50.4148 17.9806C50.4148 16.3103 49.0607 14.9562 47.3904 14.9562H47.2664L47.3541 14.8685C48.5352 13.6874 48.5352 11.7725 47.3541 10.5914C46.173 9.4103 44.258 9.4103 43.0769 10.5914L42.9893 10.679V10.5551Z" fill="url(#paint1_linear_444_779)"/>
<path fill-rule="evenodd" clip-rule="evenodd" d="M23.6983 23.1932C23.6983 21.7474 22.5263 20.5754 21.0806 20.5754C19.6348 20.5754 18.4628 21.7474 18.4628 23.1932V23.3109L18.3796 23.2277C17.3573 22.2054 15.6998 22.2054 14.6775 23.2277C13.6552 24.25 13.6552 25.9074 14.6775 26.9297L14.7607 27.0129H14.643C13.1973 27.0129 12.0253 28.1849 12.0253 29.6307C12.0253 31.0764 13.1973 32.2484 14.643 32.2484H14.7607L14.6775 32.3317C13.6552 33.354 13.6552 35.0114 14.6775 36.0337C15.6998 37.056 17.3573 37.056 18.3796 36.0337L18.4628 35.9505V36.0682C18.4628 37.5139 19.6348 38.686 21.0806 38.686C22.5263 38.686 23.6983 37.5139 23.6983 36.0682V35.9505L23.7815 36.0337C24.8038 37.056 26.4613 37.056 27.4836 36.0337C28.5059 35.0114 28.5059 33.354 27.4836 32.3317L27.4004 32.2484H27.518C28.9638 32.2484 30.1358 31.0764 30.1358 29.6307C30.1358 28.1849 28.9638 27.0129 27.518 27.0129H27.4004L27.4836 26.9297C28.5059 25.9074 28.5059 24.25 27.4836 23.2277C26.4613 22.2054 24.8038 22.2054 23.7815 23.2277L23.6983 23.3109V23.1932Z" fill="url(#paint2_linear_444_779)"/>
<defs>
<linearGradient id="paint0_linear_444_779" x1="28.7114" y1="50.426" x2="43.217" y2="38.1827" gradientUnits="userSpaceOnUse">
<stop stop-color="#0056D6"/>
<stop offset="1" stop-color="#ADD8FF"/>
</linearGradient>
<linearGradient id="paint1_linear_444_779" x1="32.4985" y1="24.2008" x2="52.3481" y2="7.44698" gradientUnits="userSpaceOnUse">
<stop stop-color="#0056D6"/>
<stop offset="1" stop-color="#ADD8FF"/>
</linearGradient>
<linearGradient id="paint2_linear_444_779" x1="14.6106" y1="35.0207" x2="31.8111" y2="20.5029" gradientUnits="userSpaceOnUse">
<stop stop-color="#0056D6"/>
<stop offset="1" stop-color="#ADD8FF"/>
</linearGradient>
</defs>
</svg>
