<svg width="89" height="82" viewBox="0 0 89 82" fill="none" xmlns="http://www.w3.org/2000/svg">
<g id="Group 1739332480">
<g id="shadow" filter="url(#filter0_f_415_663)">
<ellipse cx="44.1543" cy="53.3517" rx="21.2871" ry="6.41992" fill="#004E67" fill-opacity="0.7"/>
</g>
<path id="snow" fill-rule="evenodd" clip-rule="evenodd" d="M73.645 5.77148C73.645 2.73392 71.1825 0.271484 68.145 0.271484C65.1074 0.271484 62.645 2.73392 62.645 5.77148V7.02318L61.7599 6.13812C59.612 3.99024 56.1296 3.99024 53.9817 6.13812C51.8338 8.28601 51.8338 11.7684 53.9817 13.9163L54.8668 14.8014H53.6152C50.5777 14.8014 48.1152 17.2638 48.1152 20.3014C48.1152 23.3389 50.5777 25.8014 53.6152 25.8014H54.8669L53.9818 26.6864C51.8339 28.8343 51.8339 32.3167 53.9818 34.4646C56.1297 36.6125 59.6121 36.6125 61.76 34.4646L62.645 33.5796V34.8312C62.645 37.8687 65.1074 40.3312 68.145 40.3312C71.1825 40.3312 73.645 37.8687 73.645 34.8312V33.5795L74.53 34.4646C76.6779 36.6125 80.1603 36.6125 82.3082 34.4646C84.4561 32.3167 84.4561 28.8343 82.3082 26.6864L81.4231 25.8014H82.6749C85.7125 25.8014 88.1749 23.3389 88.1749 20.3014C88.1749 17.2638 85.7125 14.8014 82.6749 14.8014H81.4232L82.3083 13.9163C84.4562 11.7684 84.4562 8.28601 82.3083 6.13812C80.1604 3.99024 76.678 3.99024 74.5301 6.13812L73.645 7.02327V5.77148Z" fill="url(#paint0_linear_415_663)"/>
<g id="cloud" filter="url(#filter1_bi_415_663)">
<path fill-rule="evenodd" clip-rule="evenodd" d="M60.0352 28.0099C60.0352 28.5426 60.0146 29.0704 59.9743 29.5927C62.1942 27.7596 65.0407 26.6583 68.1445 26.6583C75.2358 26.6583 80.9844 32.4069 80.9844 39.4982C80.9844 46.3627 75.5974 51.9691 68.8203 52.3205V52.338H68.1445H20.8398H19.4883V52.2677C13.0323 51.5924 8 46.1329 8 39.4982C8 32.8497 13.0532 27.3814 19.5284 26.7245C20.1914 16.1267 28.9968 7.73645 39.7617 7.73645C50.9584 7.73645 60.0352 16.8132 60.0352 28.0099Z" fill="url(#paint1_linear_415_663)"/>
</g>
</g>
<defs>
<filter id="filter0_f_415_663" x="0.867188" y="24.9318" width="86.5742" height="56.8398" filterUnits="userSpaceOnUse" color-interpolation-filters="sRGB">
<feFlood flood-opacity="0" result="BackgroundImageFix"/>
<feBlend mode="normal" in="SourceGraphic" in2="BackgroundImageFix" result="shape"/>
<feGaussianBlur stdDeviation="11" result="effect1_foregroundBlur_415_663"/>
</filter>
<filter id="filter1_bi_415_663" x="1" y="0.73645" width="86.9844" height="58.6016" filterUnits="userSpaceOnUse" color-interpolation-filters="sRGB">
<feFlood flood-opacity="0" result="BackgroundImageFix"/>
<feGaussianBlur in="BackgroundImageFix" stdDeviation="3.5"/>
<feComposite in2="SourceAlpha" operator="in" result="effect1_backgroundBlur_415_663"/>
<feBlend mode="normal" in="SourceGraphic" in2="effect1_backgroundBlur_415_663" result="shape"/>
<feColorMatrix in="SourceAlpha" type="matrix" values="0 0 0 0 0 0 0 0 0 0 0 0 0 0 0 0 0 0 127 0" result="hardAlpha"/>
<feOffset dy="2"/>
<feGaussianBlur stdDeviation="4"/>
<feComposite in2="hardAlpha" operator="arithmetic" k2="-1" k3="1"/>
<feColorMatrix type="matrix" values="0 0 0 0 0 0 0 0 0 0.82 0 0 0 0 1 0 0 0 0.25 0"/>
<feBlend mode="normal" in2="shape" result="effect2_innerShadow_415_663"/>
</filter>
<linearGradient id="paint0_linear_415_663" x1="53.8339" y1="32.2239" x2="91.8806" y2="0.111016" gradientUnits="userSpaceOnUse">
<stop stop-color="#0056D6"/>
<stop offset="1" stop-color="#ADD8FF"/>
</linearGradient>
<linearGradient id="paint1_linear_415_663" x1="45.8438" y1="68.2189" x2="73.2129" y2="7.73645" gradientUnits="userSpaceOnUse">
<stop stop-color="#0082DF"/>
<stop offset="0.299998" stop-color="#48B2FF" stop-opacity="0.75"/>
<stop offset="1" stop-color="#3BADFF" stop-opacity="0"/>
</linearGradient>
</defs>
</svg>
