<svg width="88" height="75" viewBox="0 0 88 75" fill="none" xmlns="http://www.w3.org/2000/svg">
<g id="Group 11">
<g id="clouds">
<g id="cloud front">
<g id="shadow" filter="url(#filter0_f_415_886)">
<ellipse cx="43.8496" cy="45.752" rx="21.2871" ry="6.41992" fill="#004E67" fill-opacity="0.7"/>
</g>
<g id="cloud " filter="url(#filter1_bi_415_886)">
<path fill-rule="evenodd" clip-rule="evenodd" d="M59.7305 20.4102C59.7305 20.9428 59.7099 21.4707 59.6696 21.993C61.8895 20.1599 64.7361 19.0586 67.8398 19.0586C74.9311 19.0586 80.6797 24.8072 80.6797 31.8984C80.6797 38.763 75.2927 44.3694 68.5156 44.7208V44.7383H67.8398H20.5352H19.1836V44.668C12.7276 43.9926 7.69531 38.5332 7.69531 31.8984C7.69531 25.2499 12.7485 19.7817 19.2237 19.1248C19.8868 8.52693 28.6921 0.136719 39.457 0.136719C50.6537 0.136719 59.7305 9.21345 59.7305 20.4102Z" fill="url(#paint0_linear_415_886)"/>
</g>
<path id="Union" fill-rule="evenodd" clip-rule="evenodd" d="M26.1614 53.2381C26.4361 53.4251 26.7585 53.5243 27.0881 53.5234C27.3865 53.5255 27.6802 53.4476 27.9402 53.2975C28.2003 53.1474 28.4176 52.9302 28.5709 52.6675L47.5219 21.0938C47.7644 20.6894 47.8421 20.2032 47.738 19.7405C47.634 19.2778 47.3566 18.8757 46.9659 18.6212C46.5634 18.3887 46.0894 18.3232 45.6413 18.4382C45.1932 18.5531 44.805 18.8398 44.5565 19.2394L25.6054 50.7655C25.4791 50.9639 25.3932 51.1864 25.3527 51.4198C25.3123 51.6531 25.3182 51.8924 25.3702 52.1233C25.4221 52.3543 25.5189 52.572 25.6549 52.7636C25.7909 52.9552 25.9632 53.1165 26.1614 53.2381ZM13.5119 53.5234C13.1823 53.5243 12.8598 53.4251 12.5852 53.2381C12.3869 53.1166 12.2146 52.9552 12.0787 52.7636C11.9427 52.572 11.8458 52.3543 11.7939 52.1233C11.742 51.8924 11.736 51.6531 11.7765 51.4198C11.8169 51.1864 11.9028 50.9639 12.0292 50.7655L25.6053 28.5117C25.7238 28.3083 25.881 28.1315 26.0677 27.992C26.2544 27.8524 26.4666 27.753 26.6916 27.6997C26.9166 27.6464 27.1498 27.6404 27.3772 27.6818C27.6046 27.7233 27.8214 27.8115 28.0148 27.9411C28.4055 28.1956 28.6828 28.5977 28.7869 29.0604C28.8909 29.5232 28.8133 30.0093 28.5708 30.4138L14.9946 52.6675C14.8414 52.9302 14.624 53.1474 14.364 53.2975C14.1039 53.4476 13.8102 53.5255 13.5119 53.5234ZM41.6373 53.5234C41.3077 53.5243 40.9852 53.425 40.7106 53.2381C40.5123 53.1165 40.34 52.9551 40.2041 52.7636C40.0681 52.572 39.9713 52.3542 39.9193 52.1233C39.8674 51.8924 39.8615 51.6531 39.9019 51.4197C39.9423 51.1864 40.0283 50.9638 40.1546 50.7654L49.7459 34.9786C49.9939 34.5776 50.3857 34.293 50.8366 34.1862C51.2875 34.0794 51.7613 34.1591 52.1554 34.408C52.5461 34.6625 52.8235 35.0646 52.9275 35.5273C53.0316 35.99 52.9539 36.4762 52.7114 36.8806L43.12 52.6675C42.9635 52.9271 42.7454 53.1417 42.4861 53.2914C42.2268 53.4411 41.9348 53.5209 41.6373 53.5234Z" fill="url(#paint1_linear_415_886)"/>
<path id="Intersect" fill-rule="evenodd" clip-rule="evenodd" d="M19.832 44.7383H19.1837V44.668C18.1367 44.5585 17.1271 44.3231 16.1704 43.9773L25.6054 28.5117C25.7238 28.3083 25.8811 28.1315 26.0678 27.992C26.2544 27.8524 26.4666 27.753 26.6917 27.6997C26.9167 27.6464 27.1499 27.6404 27.3773 27.6818C27.6046 27.7233 27.8215 27.8115 28.0148 27.9411C28.4055 28.1956 28.6829 28.5977 28.787 29.0604C28.891 29.5232 28.8134 30.0093 28.5709 30.4138L19.832 44.7383ZM29.2285 44.7383L44.5565 19.2394C44.8051 18.8398 45.1933 18.5531 45.6414 18.4382C46.0895 18.3232 46.5634 18.3887 46.9659 18.6212C47.3566 18.8757 47.634 19.2778 47.7381 19.7405C47.8421 20.2032 47.7645 20.6894 47.522 21.0938L33.3302 44.7383H29.2285ZM47.9375 44.7383H43.8165L49.746 34.9786C49.994 34.5776 50.3858 34.293 50.8367 34.1862C51.2876 34.0794 51.7613 34.1591 52.1554 34.408C52.5461 34.6625 52.8235 35.0646 52.9276 35.5273C53.0316 35.99 52.954 36.4762 52.7115 36.8806L47.9375 44.7383Z" fill="#A9DDFA"/>
</g>
</g>
</g>
<defs>
<filter id="filter0_f_415_886" x="0.5625" y="17.332" width="86.5742" height="56.8398" filterUnits="userSpaceOnUse" color-interpolation-filters="sRGB">
<feFlood flood-opacity="0" result="BackgroundImageFix"/>
<feBlend mode="normal" in="SourceGraphic" in2="BackgroundImageFix" result="shape"/>
<feGaussianBlur stdDeviation="11" result="effect1_foregroundBlur_415_886"/>
</filter>
<filter id="filter1_bi_415_886" x="0.695312" y="-6.86328" width="86.9844" height="58.6016" filterUnits="userSpaceOnUse" color-interpolation-filters="sRGB">
<feFlood flood-opacity="0" result="BackgroundImageFix"/>
<feGaussianBlur in="BackgroundImageFix" stdDeviation="3.5"/>
<feComposite in2="SourceAlpha" operator="in" result="effect1_backgroundBlur_415_886"/>
<feBlend mode="normal" in="SourceGraphic" in2="effect1_backgroundBlur_415_886" result="shape"/>
<feColorMatrix in="SourceAlpha" type="matrix" values="0 0 0 0 0 0 0 0 0 0 0 0 0 0 0 0 0 0 127 0" result="hardAlpha"/>
<feOffset dy="2"/>
<feGaussianBlur stdDeviation="4"/>
<feComposite in2="hardAlpha" operator="arithmetic" k2="-1" k3="1"/>
<feColorMatrix type="matrix" values="0 0 0 0 0 0 0 0 0 0.82 0 0 0 0 1 0 0 0 0.25 0"/>
<feBlend mode="normal" in2="shape" result="effect2_innerShadow_415_886"/>
</filter>
<linearGradient id="paint0_linear_415_886" x1="45.5391" y1="60.6191" x2="72.9082" y2="0.136719" gradientUnits="userSpaceOnUse">
<stop stop-color="#0082DF"/>
<stop offset="0.299998" stop-color="#48B2FF" stop-opacity="0.75"/>
<stop offset="1" stop-color="#3BADFF" stop-opacity="0"/>
</linearGradient>
<linearGradient id="paint1_linear_415_886" x1="32.3613" y1="18.3828" x2="32.3613" y2="53.5234" gradientUnits="userSpaceOnUse">
<stop stop-color="#D7F0FF"/>
<stop offset="1" stop-color="#0072DC"/>
</linearGradient>
</defs>
</svg>
