<svg width="99" height="78" viewBox="0 0 99 78" fill="none" xmlns="http://www.w3.org/2000/svg">
<g id="Group 19">
<g id="clouds">
<g id="cloud back" filter="url(#filter0_bi_415_819)">
<mask id="path-1-inside-1_415_819" fill="white">
<path fill-rule="evenodd" clip-rule="evenodd" d="M84.2069 13.7463C84.2069 14.1064 84.193 14.4633 84.1657 14.8164C85.6662 13.5772 87.5904 12.8328 89.6884 12.8328C94.4816 12.8328 98.3672 16.7184 98.3672 21.5116C98.3672 26.1516 94.7259 29.9411 90.145 30.1785V30.1904H56.8002V30.1428C52.4365 29.6862 49.0352 25.9961 49.0352 21.5116C49.0352 17.0177 52.4506 13.3216 56.8273 12.8775C57.2755 5.71415 63.2272 0.0429688 70.5035 0.0429688C78.0717 0.0429688 84.2069 6.17816 84.2069 13.7463Z"/>
</mask>
<path fill-rule="evenodd" clip-rule="evenodd" d="M84.2069 13.7463C84.2069 14.1064 84.193 14.4633 84.1657 14.8164C85.6662 13.5772 87.5904 12.8328 89.6884 12.8328C94.4816 12.8328 98.3672 16.7184 98.3672 21.5116C98.3672 26.1516 94.7259 29.9411 90.145 30.1785V30.1904H56.8002V30.1428C52.4365 29.6862 49.0352 25.9961 49.0352 21.5116C49.0352 17.0177 52.4506 13.3216 56.8273 12.8775C57.2755 5.71415 63.2272 0.0429688 70.5035 0.0429688C78.0717 0.0429688 84.2069 6.17816 84.2069 13.7463Z" fill="url(#paint0_linear_415_819)"/>
<path d="M84.1657 14.8164L83.1687 14.7394L82.9874 17.0864L84.8025 15.5875L84.1657 14.8164ZM90.145 30.1785L90.0932 29.1799L89.145 29.229V30.1785H90.145ZM90.145 30.1904V31.1904H91.145V30.1904H90.145ZM56.8002 30.1904H55.8002V31.1904H56.8002V30.1904ZM56.8002 30.1428H57.8002V29.242L56.9043 29.1483L56.8002 30.1428ZM56.8273 12.8775L56.9283 13.8724L57.7724 13.7868L57.8253 12.94L56.8273 12.8775ZM85.1628 14.8934C85.192 14.5147 85.2069 14.1321 85.2069 13.7463H83.2069C83.2069 14.0807 83.194 14.4119 83.1687 14.7394L85.1628 14.8934ZM89.6884 11.8328C87.3495 11.8328 85.2021 12.6637 83.529 14.0453L84.8025 15.5875C86.1304 14.4908 87.8312 13.8328 89.6884 13.8328V11.8328ZM99.3672 21.5116C99.3672 16.1661 95.0339 11.8328 89.6884 11.8328V13.8328C93.9293 13.8328 97.3672 17.2707 97.3672 21.5116H99.3672ZM90.1968 31.1772C95.3064 30.9124 99.3672 26.6865 99.3672 21.5116H97.3672C97.3672 25.6166 94.1455 28.9698 90.0932 29.1799L90.1968 31.1772ZM89.145 30.1785V30.1904H91.145V30.1785H89.145ZM90.145 29.1904H56.8002V31.1904H90.145V29.1904ZM57.8002 30.1904V30.1428H55.8002V30.1904H57.8002ZM48.0352 21.5116C48.0352 26.5135 51.8286 30.6281 56.6961 31.1374L56.9043 29.1483C53.0445 28.7444 50.0352 25.4788 50.0352 21.5116H48.0352ZM56.7263 11.8826C51.8443 12.378 48.0352 16.4993 48.0352 21.5116H50.0352C50.0352 17.5361 53.0569 14.2652 56.9283 13.8724L56.7263 11.8826ZM70.5035 -0.957031C62.6959 -0.957031 56.3102 5.12803 55.8293 12.8151L57.8253 12.94C58.2408 6.30028 63.7586 1.04297 70.5035 1.04297V-0.957031ZM85.2069 13.7463C85.2069 5.62588 78.624 -0.957031 70.5035 -0.957031V1.04297C77.5194 1.04297 83.2069 6.73045 83.2069 13.7463H85.2069Z" fill="url(#paint1_linear_415_819)" fill-opacity="0.3" mask="url(#path-1-inside-1_415_819)"/>
</g>
<g id="cloud front">
<g id="shadow" filter="url(#filter1_f_415_819)">
<ellipse cx="43.9668" cy="49.0371" rx="21.2871" ry="6.41992" fill="#004E67" fill-opacity="0.7"/>
</g>
<g id="cloud " filter="url(#filter2_bi_415_819)">
<path fill-rule="evenodd" clip-rule="evenodd" d="M59.8477 23.6953C59.8477 24.228 59.8271 24.7558 59.7868 25.2782C62.0067 23.445 64.8532 22.3438 67.957 22.3438C75.0483 22.3438 80.7969 28.0923 80.7969 35.1836C80.7969 42.0482 75.4099 47.6545 68.6328 48.006V48.0234H67.957H20.6523H19.3008V47.9532C12.8448 47.2778 7.8125 41.8184 7.8125 35.1836C7.8125 28.5351 12.8657 23.0668 19.3409 22.4099C20.0039 11.8121 28.8093 3.42188 39.5742 3.42188C50.7709 3.42188 59.8477 12.4986 59.8477 23.6953Z" fill="url(#paint2_linear_415_819)"/>
</g>
<path id="Union" fill-rule="evenodd" clip-rule="evenodd" d="M26.2786 56.5232C26.5533 56.7102 26.8757 56.8095 27.2053 56.8086C27.5037 56.8106 27.7974 56.7328 28.0574 56.5827C28.3174 56.4325 28.5348 56.2154 28.688 55.9526L47.6391 24.379C47.8816 23.9745 47.9593 23.4884 47.8552 23.0256C47.7512 22.5629 47.4738 22.1608 47.0831 21.9064C46.6806 21.6739 46.2066 21.6084 45.7585 21.7233C45.3104 21.8383 44.9222 22.125 44.6737 22.5245L25.7226 54.0506C25.5963 54.249 25.5103 54.4716 25.4699 54.7049C25.4295 54.9382 25.4354 55.1776 25.4873 55.4085C25.5393 55.6394 25.6361 55.8572 25.7721 56.0488C25.9081 56.2403 26.0804 56.4017 26.2786 56.5232ZM13.6291 56.8086C13.2995 56.8095 12.977 56.7102 12.7024 56.5233C12.5041 56.4017 12.3318 56.2403 12.1959 56.0488C12.0599 55.8572 11.963 55.6394 11.9111 55.4085C11.8592 55.1776 11.8532 54.9382 11.8937 54.7049C11.9341 54.4716 12.02 54.249 12.1463 54.0506L25.7225 31.7969C25.841 31.5935 25.9982 31.4166 26.1849 31.2771C26.3716 31.1376 26.5838 31.0382 26.8088 30.9849C27.0338 30.9316 27.267 30.9255 27.4944 30.967C27.7218 31.0085 27.9386 31.0967 28.132 31.2263C28.5227 31.4808 28.8 31.8829 28.9041 32.3456C29.0081 32.8083 28.9305 33.2945 28.688 33.6989L15.1118 55.9527C14.9586 56.2154 14.7412 56.4326 14.4812 56.5827C14.2211 56.7328 13.9274 56.8106 13.6291 56.8086ZM41.7545 56.8086C41.4249 56.8095 41.1024 56.7102 40.8278 56.5233C40.6295 56.4017 40.4572 56.2403 40.3213 56.0488C40.1853 55.8572 40.0885 55.6394 40.0365 55.4085C39.9846 55.1776 39.9787 54.9383 40.0191 54.7049C40.0595 54.4716 40.1455 54.249 40.2718 54.0506L49.8631 38.2638C50.1111 37.8628 50.5029 37.5782 50.9538 37.4714C51.4047 37.3646 51.8785 37.4443 52.2726 37.6932C52.6633 37.9477 52.9407 38.3498 53.0447 38.8125C53.1488 39.2752 53.0711 39.7614 52.8286 40.1658L43.2372 55.9527C43.0806 56.2123 42.8625 56.4269 42.6033 56.5766C42.344 56.7262 42.052 56.8061 41.7545 56.8086Z" fill="url(#paint3_linear_415_819)"/>
<path id="Intersect" fill-rule="evenodd" clip-rule="evenodd" d="M19.9492 48.0234H19.3008V47.9532C18.2539 47.8436 17.2443 47.6083 16.2876 47.2625L25.7226 31.7969C25.841 31.5935 25.9983 31.4166 26.185 31.2771C26.3716 31.1376 26.5838 31.0382 26.8089 30.9849C27.0339 30.9316 27.2671 30.9255 27.4945 30.967C27.7218 31.0085 27.9387 31.0967 28.132 31.2263C28.5227 31.4808 28.8001 31.8829 28.9041 32.3456C29.0082 32.8083 28.9306 33.2945 28.6881 33.6989L19.9492 48.0234ZM29.3457 48.0234L44.6737 22.5245C44.9223 22.125 45.3105 21.8383 45.7585 21.7233C46.2066 21.6084 46.6806 21.6739 47.0831 21.9064C47.4738 22.1608 47.7512 22.5629 47.8553 23.0256C47.9593 23.4884 47.8817 23.9745 47.6392 24.379L33.4474 48.0234H29.3457ZM48.0547 48.0234H43.9337L49.8632 38.2638C50.1112 37.8628 50.503 37.5782 50.9539 37.4714C51.4048 37.3646 51.8785 37.4443 52.2726 37.6932C52.6633 37.9477 52.9407 38.3498 53.0448 38.8125C53.1488 39.2752 53.0712 39.7614 52.8287 40.1658L48.0547 48.0234Z" fill="#A9DDFA"/>
</g>
</g>
</g>
<defs>
<filter id="filter0_bi_415_819" x="42.0352" y="-6.95703" width="63.332" height="44.1474" filterUnits="userSpaceOnUse" color-interpolation-filters="sRGB">
<feFlood flood-opacity="0" result="BackgroundImageFix"/>
<feGaussianBlur in="BackgroundImageFix" stdDeviation="3.5"/>
<feComposite in2="SourceAlpha" operator="in" result="effect1_backgroundBlur_415_819"/>
<feBlend mode="normal" in="SourceGraphic" in2="effect1_backgroundBlur_415_819" result="shape"/>
<feColorMatrix in="SourceAlpha" type="matrix" values="0 0 0 0 0 0 0 0 0 0 0 0 0 0 0 0 0 0 127 0" result="hardAlpha"/>
<feOffset dy="2"/>
<feGaussianBlur stdDeviation="4"/>
<feComposite in2="hardAlpha" operator="arithmetic" k2="-1" k3="1"/>
<feColorMatrix type="matrix" values="0 0 0 0 0 0 0 0 0 0.82 0 0 0 0 1 0 0 0 0.25 0"/>
<feBlend mode="normal" in2="shape" result="effect2_innerShadow_415_819"/>
</filter>
<filter id="filter1_f_415_819" x="0.679688" y="20.6172" width="86.5742" height="56.8398" filterUnits="userSpaceOnUse" color-interpolation-filters="sRGB">
<feFlood flood-opacity="0" result="BackgroundImageFix"/>
<feBlend mode="normal" in="SourceGraphic" in2="BackgroundImageFix" result="shape"/>
<feGaussianBlur stdDeviation="11" result="effect1_foregroundBlur_415_819"/>
</filter>
<filter id="filter2_bi_415_819" x="0.8125" y="-3.57812" width="86.9844" height="58.6016" filterUnits="userSpaceOnUse" color-interpolation-filters="sRGB">
<feFlood flood-opacity="0" result="BackgroundImageFix"/>
<feGaussianBlur in="BackgroundImageFix" stdDeviation="3.5"/>
<feComposite in2="SourceAlpha" operator="in" result="effect1_backgroundBlur_415_819"/>
<feBlend mode="normal" in="SourceGraphic" in2="effect1_backgroundBlur_415_819" result="shape"/>
<feColorMatrix in="SourceAlpha" type="matrix" values="0 0 0 0 0 0 0 0 0 0 0 0 0 0 0 0 0 0 127 0" result="hardAlpha"/>
<feOffset dy="2"/>
<feGaussianBlur stdDeviation="4"/>
<feComposite in2="hardAlpha" operator="arithmetic" k2="-1" k3="1"/>
<feColorMatrix type="matrix" values="0 0 0 0 0 0 0 0 0 0.82 0 0 0 0 1 0 0 0 0.25 0"/>
<feBlend mode="normal" in2="shape" result="effect2_innerShadow_415_819"/>
</filter>
<linearGradient id="paint0_linear_415_819" x1="61.5371" y1="36.873" x2="115.6" y2="-17.5274" gradientUnits="userSpaceOnUse">
<stop stop-color="#0082DF"/>
<stop offset="0.8818" stop-color="#3BADFF" stop-opacity="0"/>
</linearGradient>
<linearGradient id="paint1_linear_415_819" x1="61.1992" y1="-1.98438" x2="94.9883" y2="35.5215" gradientUnits="userSpaceOnUse">
<stop stop-color="#0699D7"/>
<stop offset="1" stop-color="#0699D7" stop-opacity="0"/>
</linearGradient>
<linearGradient id="paint2_linear_415_819" x1="45.6563" y1="63.9043" x2="73.0254" y2="3.42188" gradientUnits="userSpaceOnUse">
<stop stop-color="#0082DF"/>
<stop offset="0.299998" stop-color="#48B2FF" stop-opacity="0.75"/>
<stop offset="1" stop-color="#3BADFF" stop-opacity="0"/>
</linearGradient>
<linearGradient id="paint3_linear_415_819" x1="32.4785" y1="21.668" x2="32.4785" y2="56.8086" gradientUnits="userSpaceOnUse">
<stop stop-color="#D7F0FF"/>
<stop offset="1" stop-color="#0072DC"/>
</linearGradient>
</defs>
</svg>
