<svg width="30" height="30" viewBox="0 0 30 30" fill="none" xmlns="http://www.w3.org/2000/svg">
<circle cx="15" cy="15" r="15" fill="#0A9FFD"/>
<g clip-path="url(#clip0_109_903)">
<path fill-rule="evenodd" clip-rule="evenodd" d="M8.27964 12.4579C8.2865 12.4564 8.29335 12.455 8.3002 12.4535L18.5669 10.2552C18.6845 10.23 18.8085 10.2034 18.9139 10.1908C19.0204 10.178 19.209 10.1641 19.4031 10.2527C19.6326 10.3574 19.8058 10.5561 19.8782 10.7978C19.9393 11.0021 19.8999 11.1871 19.8727 11.2908C19.8457 11.3935 19.8025 11.5127 19.7614 11.6257L16.1741 21.5157C16.1254 21.6502 16.0762 21.7858 16.0262 21.8927C15.9792 21.993 15.8817 22.1846 15.678 22.3064C15.4457 22.4453 15.1621 22.4689 14.9101 22.3703C14.6891 22.2838 14.5612 22.1108 14.4984 22.0197C14.4313 21.9225 14.3605 21.7969 14.2902 21.6723L13.0966 19.5577C13.0826 19.5329 13.0688 19.5084 13.0552 19.4843C12.8019 19.0362 12.6109 18.6983 12.5377 18.3294C12.4732 18.0048 12.4786 17.6703 12.5534 17.3479C12.6371 16.9869 13.274 16.2763 13.5357 15.8461C13.0737 16.0465 12.2828 16.5804 11.9138 16.614C11.5842 16.6441 11.252 16.6037 10.9393 16.4955C10.5839 16.3726 10.2752 16.1372 9.86594 15.8251C9.84391 15.8083 9.82158 15.7913 9.79894 15.774L7.88387 14.3156C7.8783 14.3113 7.87273 14.3071 7.86715 14.3028C7.75332 14.2162 7.63856 14.1288 7.55145 14.0491C7.46975 13.9744 7.3159 13.8241 7.26042 13.5934C7.19713 13.3302 7.25921 13.0526 7.42855 12.8414C7.57702 12.6563 7.78021 12.5858 7.88596 12.553C7.99871 12.518 8.13975 12.4878 8.27964 12.4579Z" fill="white"/>
</g>
<defs>
<clipPath id="clip0_109_903">
<rect width="14" height="14" fill="white" transform="translate(5 14) rotate(-41.0745)"/>
</clipPath>
</defs>
</svg>
