<svg width="57" height="86" viewBox="0 0 57 86" fill="none" xmlns="http://www.w3.org/2000/svg">
<g id="&#231;&#187;&#132;_5463_1_">
<path id="&#232;&#183;&#175;&#229;&#190;&#132;_5708_1_" fill-rule="evenodd" clip-rule="evenodd" d="M40.9962 10.5974C40.9962 7.71237 43.2401 5.46851 46.1251 5.46851C49.01 5.46851 51.2539 7.71237 51.2539 10.5974C51.2539 13.4823 49.01 15.7262 46.1251 15.7262C43.3469 15.7262 40.9962 13.4823 40.9962 10.5974Z" fill="#2CADFF"/>
<path id="&#232;&#183;&#175;&#229;&#190;&#132;_5709_1_" d="M46.1252 20.9619C41.958 20.9619 38.1113 18.5042 36.5085 14.6576C34.9058 10.811 35.7606 6.21634 38.7524 3.22451C42.8127 -0.835838 49.4375 -0.835812 53.4979 3.11768C57.5582 7.17803 57.5582 13.8028 53.6047 17.8631C51.5746 19.8933 48.9033 21.0687 46.1252 20.9619ZM46.1252 1.72863C41.21 1.72863 37.2565 5.78894 37.2565 10.7041C37.2565 15.6193 41.3168 19.5727 46.232 19.5727C51.1471 19.5727 55.1007 15.5124 55.1007 10.7041C55.1007 5.68209 51.1472 1.72863 46.1252 1.72863Z" fill="#2CADFF"/>
<path id="&#232;&#183;&#175;&#229;&#190;&#132;_5710_1_" d="M4.13273 81.3329H2.63682V47.1405L2.85053 46.9268L39.0731 17.2222L40.1416 18.077L4.13273 47.6748V81.3329Z" fill="#2CADFF"/>
<path id="&#232;&#183;&#175;&#229;&#190;&#132;_5711_1_" fill-rule="evenodd" clip-rule="evenodd" d="M0.392638 82.2944C0.392638 80.4779 1.7817 79.0889 3.59817 79.0889C5.41465 79.0889 6.80371 80.4779 6.80371 82.2944C6.80371 84.1109 5.41465 85.4999 3.59817 85.4999C1.7817 85.4999 0.392638 84.004 0.392638 82.2944Z" fill="#2CADFF"/>
</g>
</svg>
