<svg width="17" height="17" viewBox="0 0 17 17" fill="none" xmlns="http://www.w3.org/2000/svg">
<path d="M3.25 10.2148C1.86148 10.8273 1 11.6809 1 12.625C1 14.489 4.35786 16 8.5 16C12.6421 16 16 14.489 16 12.625C16 11.6809 15.1385 10.8273 13.75 10.2148M13 5.5C13 8.54778 9.625 10 8.5 12.25C7.375 10 4 8.54778 4 5.5C4 3.01472 6.01472 1 8.5 1C10.9853 1 13 3.01472 13 5.5ZM9.25 5.5C9.25 5.91421 8.91421 6.25 8.5 6.25C8.08579 6.25 7.75 5.91421 7.75 5.5C7.75 5.08579 8.08579 4.75 8.5 4.75C8.91421 4.75 9.25 5.08579 9.25 5.5Z" stroke="white" stroke-linecap="round" stroke-linejoin="round"/>
</svg>
